<?xml version="1.0" encoding="UTF-8" standalone="no"?>
<!DOCTYPE svg PUBLIC "-//W3C//DTD SVG 1.1//EN"
 "http://www.w3.org/Graphics/SVG/1.1/DTD/svg11.dtd">
<!-- Generated by graphviz version 13.1.2 (20250808.2320)
 -->
<!-- Pages: 1 -->
<svg width="1674pt" height="332pt"
 viewBox="0.00 0.00 1674.00 332.00" xmlns="http://www.w3.org/2000/svg" xmlns:xlink="http://www.w3.org/1999/xlink">
<g id="graph0" class="graph" transform="scale(1 1) rotate(0) translate(4 328)">
<polygon fill="white" stroke="none" points="-4,4 -4,-328 1670.37,-328 1670.37,4 -4,4"/>
<!-- NaturalLanguageProcessing -->
<g id="node1" class="node">
<title>NaturalLanguageProcessing</title>
<g id="a_node1"><a xlink:href="https://w3id.org/emmo/hume#NaturalLanguageProcessing" xlink:title="NaturalLanguageProcessing">
<ellipse fill="#ffffcc" stroke="black" stroke-width="2" cx="170.13" cy="-90" rx="114.82" ry="18"/>
<text xml:space="preserve" text-anchor="middle" x="170.13" y="-84.95" font-family="Times,serif" font-size="14.00">NaturalLanguageProcessing</text>
</a>
</g>
</g>
<!-- PerceptionModel -->
<g id="node17" class="node">
<title>PerceptionModel</title>
<g id="a_node17"><a xlink:href="https://w3id.org/pink#PerceptionModel" xlink:title="PerceptionModel">
<ellipse fill="#ffffcc" stroke="black" cx="375.13" cy="-162" rx="74.89" ry="18"/>
<text xml:space="preserve" text-anchor="middle" x="375.13" y="-156.95" font-family="Times,serif" font-size="14.00">PerceptionModel</text>
</a>
</g>
</g>
<!-- NaturalLanguageProcessing&#45;&gt;PerceptionModel -->
<g id="edge1" class="edge">
<title>NaturalLanguageProcessing&#45;&gt;PerceptionModel</title>
<path fill="none" stroke="black" d="M217.68,-107.24C249.13,-117.98 290.39,-132.06 322.78,-143.12"/>
<polygon fill="none" stroke="black" points="321.37,-146.34 331.97,-146.26 323.63,-139.72 321.37,-146.34"/>
</g>
<!-- ExpertSystem -->
<g id="node2" class="node">
<title>ExpertSystem</title>
<g id="a_node2"><a xlink:href="https://w3id.org/pink#ExpertSystem" xlink:title="ExpertSystem">
<ellipse fill="#ffffcc" stroke="black" cx="828.13" cy="-18" rx="63.12" ry="18"/>
<text xml:space="preserve" text-anchor="middle" x="828.13" y="-12.95" font-family="Times,serif" font-size="14.00">ExpertSystem</text>
</a>
</g>
</g>
<!-- KnowledgeRepresentation -->
<g id="node12" class="node">
<title>KnowledgeRepresentation</title>
<g id="a_node12"><a xlink:href="https://w3id.org/pink#KnowledgeRepresentation" xlink:title="KnowledgeRepresentation">
<ellipse fill="#ffffcc" stroke="black" cx="828.13" cy="-90" rx="108.67" ry="18"/>
<text xml:space="preserve" text-anchor="middle" x="828.13" y="-84.95" font-family="Times,serif" font-size="14.00">KnowledgeRepresentation</text>
</a>
</g>
</g>
<!-- ExpertSystem&#45;&gt;KnowledgeRepresentation -->
<g id="edge3" class="edge">
<title>ExpertSystem&#45;&gt;KnowledgeRepresentation</title>
<path fill="none" stroke="black" d="M828.13,-36.3C828.13,-43.59 828.13,-52.27 828.13,-60.46"/>
<polygon fill="none" stroke="black" points="824.63,-60.38 828.13,-70.38 831.63,-60.38 824.63,-60.38"/>
</g>
<!-- AnalogicalReasoning -->
<g id="node3" class="node">
<title>AnalogicalReasoning</title>
<g id="a_node3"><a xlink:href="https://w3id.org/pink#AnalogicalReasoning" xlink:title="AnalogicalReasoning">
<ellipse fill="#ffffcc" stroke="black" cx="1422.13" cy="-90" rx="90.25" ry="18"/>
<text xml:space="preserve" text-anchor="middle" x="1422.13" y="-84.95" font-family="Times,serif" font-size="14.00">AnalogicalReasoning</text>
</a>
</g>
</g>
<!-- CognitionAndLearningModel -->
<g id="node13" class="node">
<title>CognitionAndLearningModel</title>
<g id="a_node13"><a xlink:href="https://w3id.org/pink#CognitionAndLearningModel" xlink:title="CognitionAndLearningModel">
<ellipse fill="#ffffcc" stroke="black" cx="932.13" cy="-162" rx="121.47" ry="18"/>
<text xml:space="preserve" text-anchor="middle" x="932.13" y="-156.95" font-family="Times,serif" font-size="14.00">CognitionAndLearningModel</text>
</a>
</g>
</g>
<!-- AnalogicalReasoning&#45;&gt;CognitionAndLearningModel -->
<g id="edge10" class="edge">
<title>AnalogicalReasoning&#45;&gt;CognitionAndLearningModel</title>
<path fill="none" stroke="black" d="M1356.15,-102.66C1345.13,-104.52 1333.82,-106.36 1323.13,-108 1268.83,-116.34 1129.08,-135.04 1032.27,-147.84"/>
<polygon fill="none" stroke="black" points="1031.94,-144.35 1022.48,-149.13 1032.85,-151.29 1031.94,-144.35"/>
</g>
<!-- ImageClassification -->
<g id="node4" class="node">
<title>ImageClassification</title>
<g id="a_node4"><a xlink:href="https://w3id.org/pink#ImageClassification" xlink:title="ImageClassification">
<ellipse fill="#ffffcc" stroke="black" cx="85.13" cy="-18" rx="85.13" ry="18"/>
<text xml:space="preserve" text-anchor="middle" x="85.13" y="-12.95" font-family="Times,serif" font-size="14.00">ImageClassification</text>
</a>
</g>
</g>
<!-- ComputerVision -->
<g id="node10" class="node">
<title>ComputerVision</title>
<g id="a_node10"><a xlink:href="https://w3id.org/pink#ComputerVision" xlink:title="ComputerVision">
<ellipse fill="#ffffcc" stroke="black" cx="375.13" cy="-90" rx="72.34" ry="18"/>
<text xml:space="preserve" text-anchor="middle" x="375.13" y="-84.95" font-family="Times,serif" font-size="14.00">ComputerVision</text>
</a>
</g>
</g>
<!-- ImageClassification&#45;&gt;ComputerVision -->
<g id="edge6" class="edge">
<title>ImageClassification&#45;&gt;ComputerVision</title>
<path fill="none" stroke="black" d="M139.68,-32.17C189.2,-44.12 262.17,-61.73 313.72,-74.18"/>
<polygon fill="none" stroke="black" points="312.7,-77.53 323.24,-76.47 314.34,-70.73 312.7,-77.53"/>
</g>
<!-- DataBasedModel -->
<g id="node5" class="node">
<title>DataBasedModel</title>
<g id="a_node5"><a xlink:href="https://w3id.org/emmo/hume#DataBasedModel" xlink:title="DataBasedModel">
<ellipse fill="#ffffcc" stroke="black" stroke-width="2" cx="932.13" cy="-306" rx="75.41" ry="18"/>
<text xml:space="preserve" text-anchor="middle" x="932.13" y="-300.95" font-family="Times,serif" font-size="14.00">DataBasedModel</text>
</a>
</g>
</g>
<!-- PlanningModel -->
<g id="node6" class="node">
<title>PlanningModel</title>
<g id="a_node6"><a xlink:href="https://w3id.org/pink#PlanningModel" xlink:title="PlanningModel">
<ellipse fill="#ffffcc" stroke="black" cx="1598.13" cy="-90" rx="68.24" ry="18"/>
<text xml:space="preserve" text-anchor="middle" x="1598.13" y="-84.95" font-family="Times,serif" font-size="14.00">PlanningModel</text>
</a>
</g>
</g>
<!-- PlanningModel&#45;&gt;CognitionAndLearningModel -->
<g id="edge11" class="edge">
<title>PlanningModel&#45;&gt;CognitionAndLearningModel</title>
<path fill="none" stroke="black" d="M1549.03,-102.91C1539.8,-104.84 1530.2,-106.65 1521.13,-108 1319.18,-138.08 1266.22,-122.85 1063.13,-144 1052.55,-145.1 1041.5,-146.36 1030.5,-147.69"/>
<polygon fill="none" stroke="black" points="1030.09,-144.21 1020.59,-148.9 1030.94,-151.16 1030.09,-144.21"/>
</g>
<!-- ImageSegmentation -->
<g id="node7" class="node">
<title>ImageSegmentation</title>
<g id="a_node7"><a xlink:href="https://w3id.org/pink#ImageSegmentation" xlink:title="ImageSegmentation">
<ellipse fill="#ffffcc" stroke="black" cx="274.13" cy="-18" rx="85.64" ry="18"/>
<text xml:space="preserve" text-anchor="middle" x="274.13" y="-12.95" font-family="Times,serif" font-size="14.00">ImageSegmentation</text>
</a>
</g>
</g>
<!-- ImageSegmentation&#45;&gt;ComputerVision -->
<g id="edge2" class="edge">
<title>ImageSegmentation&#45;&gt;ComputerVision</title>
<path fill="none" stroke="black" d="M298.07,-35.59C311.27,-44.74 327.87,-56.24 342.27,-66.23"/>
<polygon fill="none" stroke="black" points="339.91,-68.85 350.12,-71.67 343.9,-63.09 339.91,-68.85"/>
</g>
<!-- MachineLearning -->
<g id="node8" class="node">
<title>MachineLearning</title>
<g id="a_node8"><a xlink:href="https://w3id.org/emmo/hume#MachineLearning" xlink:title="MachineLearning">
<ellipse fill="#ffffcc" stroke="black" stroke-width="2" cx="542.13" cy="-90" rx="76.94" ry="18"/>
<text xml:space="preserve" text-anchor="middle" x="542.13" y="-84.95" font-family="Times,serif" font-size="14.00">MachineLearning</text>
</a>
</g>
</g>
<!-- MachineLearning&#45;&gt;CognitionAndLearningModel -->
<g id="edge12" class="edge">
<title>MachineLearning&#45;&gt;CognitionAndLearningModel</title>
<path fill="none" stroke="black" d="M599.92,-102.61C609.34,-104.45 619,-106.3 628.13,-108 700.28,-121.42 782.25,-135.65 842.88,-145.98"/>
<polygon fill="none" stroke="black" points="842.01,-149.39 852.45,-147.61 843.18,-142.49 842.01,-149.39"/>
</g>
<!-- Logic -->
<g id="node9" class="node">
<title>Logic</title>
<g id="a_node9"><a xlink:href="https://w3id.org/pink#Logic" xlink:title="Logic">
<ellipse fill="#ffffcc" stroke="black" cx="669.13" cy="-90" rx="32.41" ry="18"/>
<text xml:space="preserve" text-anchor="middle" x="669.13" y="-84.95" font-family="Times,serif" font-size="14.00">Logic</text>
</a>
</g>
</g>
<!-- Logic&#45;&gt;CognitionAndLearningModel -->
<g id="edge7" class="edge">
<title>Logic&#45;&gt;CognitionAndLearningModel</title>
<path fill="none" stroke="black" d="M694.05,-102.07C699.3,-104.19 704.85,-106.29 710.13,-108 755.63,-122.76 807.58,-135.38 849.78,-144.61"/>
<polygon fill="none" stroke="black" points="848.86,-147.99 859.37,-146.68 850.33,-141.14 848.86,-147.99"/>
</g>
<!-- ComputerVision&#45;&gt;PerceptionModel -->
<g id="edge9" class="edge">
<title>ComputerVision&#45;&gt;PerceptionModel</title>
<path fill="none" stroke="black" d="M375.13,-108.3C375.13,-115.59 375.13,-124.27 375.13,-132.46"/>
<polygon fill="none" stroke="black" points="371.63,-132.38 375.13,-142.38 378.63,-132.38 371.63,-132.38"/>
</g>
<!-- ObjectDetection -->
<g id="node11" class="node">
<title>ObjectDetection</title>
<g id="a_node11"><a xlink:href="https://w3id.org/pink#ObjectDetection" xlink:title="ObjectDetection">
<ellipse fill="#ffffcc" stroke="black" cx="449.13" cy="-18" rx="71.31" ry="18"/>
<text xml:space="preserve" text-anchor="middle" x="449.13" y="-12.95" font-family="Times,serif" font-size="14.00">ObjectDetection</text>
</a>
</g>
</g>
<!-- ObjectDetection&#45;&gt;ComputerVision -->
<g id="edge18" class="edge">
<title>ObjectDetection&#45;&gt;ComputerVision</title>
<path fill="none" stroke="black" d="M431.59,-35.59C422.44,-44.24 411.08,-55 400.94,-64.58"/>
<polygon fill="none" stroke="black" points="398.76,-61.83 393.9,-71.25 403.57,-66.92 398.76,-61.83"/>
</g>
<!-- KnowledgeRepresentation&#45;&gt;CognitionAndLearningModel -->
<g id="edge16" class="edge">
<title>KnowledgeRepresentation&#45;&gt;CognitionAndLearningModel</title>
<path fill="none" stroke="black" d="M853.31,-107.95C866.62,-116.91 883.17,-128.04 897.66,-137.8"/>
<polygon fill="none" stroke="black" points="895.32,-140.44 905.57,-143.12 899.23,-134.64 895.32,-140.44"/>
</g>
<!-- ArtificialIntelligence -->
<g id="node19" class="node">
<title>ArtificialIntelligence</title>
<g id="a_node19"><a xlink:href="https://w3id.org/emmo/hume#ArtificialIntelligence" xlink:title="ArtificialIntelligence">
<ellipse fill="#ffffcc" stroke="black" cx="932.13" cy="-234" rx="88.2" ry="18"/>
<text xml:space="preserve" text-anchor="middle" x="932.13" y="-228.95" font-family="Times,serif" font-size="14.00">ArtificialIntelligence</text>
</a>
</g>
</g>
<!-- CognitionAndLearningModel&#45;&gt;ArtificialIntelligence -->
<g id="edge15" class="edge">
<title>CognitionAndLearningModel&#45;&gt;ArtificialIntelligence</title>
<path fill="none" stroke="black" d="M932.13,-180.3C932.13,-187.59 932.13,-196.27 932.13,-204.46"/>
<polygon fill="none" stroke="black" points="928.63,-204.38 932.13,-214.38 935.63,-204.38 928.63,-204.38"/>
</g>
<!-- InductiveReasining -->
<g id="node14" class="node">
<title>InductiveReasining</title>
<g id="a_node14"><a xlink:href="https://w3id.org/pink#ProbabilityModel" xlink:title="InductiveReasining">
<ellipse fill="#ffffcc" stroke="black" cx="1037.13" cy="-90" rx="82.57" ry="18"/>
<text xml:space="preserve" text-anchor="middle" x="1037.13" y="-84.95" font-family="Times,serif" font-size="14.00">InductiveReasining</text>
</a>
</g>
</g>
<!-- InductiveReasining&#45;&gt;CognitionAndLearningModel -->
<g id="edge14" class="edge">
<title>InductiveReasining&#45;&gt;CognitionAndLearningModel</title>
<path fill="none" stroke="black" d="M1012.25,-107.59C998.72,-116.61 981.76,-127.91 966.94,-137.79"/>
<polygon fill="none" stroke="black" points="965.2,-134.75 958.82,-143.2 969.09,-140.57 965.2,-134.75"/>
</g>
<!-- AbductiveReasoning -->
<g id="node15" class="node">
<title>AbductiveReasoning</title>
<g id="a_node15"><a xlink:href="https://w3id.org/pink#AbductiveReasoning" xlink:title="AbductiveReasoning">
<ellipse fill="#ffffcc" stroke="black" cx="1226.13" cy="-90" rx="88.2" ry="18"/>
<text xml:space="preserve" text-anchor="middle" x="1226.13" y="-84.95" font-family="Times,serif" font-size="14.00">AbductiveReasoning</text>
</a>
</g>
</g>
<!-- AbductiveReasoning&#45;&gt;CognitionAndLearningModel -->
<g id="edge13" class="edge">
<title>AbductiveReasoning&#45;&gt;CognitionAndLearningModel</title>
<path fill="none" stroke="black" d="M1170.14,-104.33C1123.42,-115.45 1056.48,-131.39 1005.48,-143.54"/>
<polygon fill="none" stroke="black" points="1004.92,-140.07 996,-145.79 1006.54,-146.88 1004.92,-140.07"/>
</g>
<!-- TargetTracking -->
<g id="node16" class="node">
<title>TargetTracking</title>
<g id="a_node16"><a xlink:href="https://w3id.org/pink#TargetTracking" xlink:title="TargetTracking">
<ellipse fill="#ffffcc" stroke="black" cx="606.13" cy="-18" rx="67.73" ry="18"/>
<text xml:space="preserve" text-anchor="middle" x="606.13" y="-12.95" font-family="Times,serif" font-size="14.00">TargetTracking</text>
</a>
</g>
</g>
<!-- TargetTracking&#45;&gt;ComputerVision -->
<g id="edge17" class="edge">
<title>TargetTracking&#45;&gt;ComputerVision</title>
<path fill="none" stroke="black" d="M562.68,-32.17C525.21,-43.52 470.89,-59.98 430.35,-72.27"/>
<polygon fill="none" stroke="black" points="429.57,-68.85 421.01,-75.1 431.6,-75.55 429.57,-68.85"/>
</g>
<!-- PerceptionModel&#45;&gt;ArtificialIntelligence -->
<g id="edge4" class="edge">
<title>PerceptionModel&#45;&gt;ArtificialIntelligence</title>
<path fill="none" stroke="black" d="M440.39,-171.2C541.35,-183.89 735.39,-208.27 847.16,-222.32"/>
<polygon fill="none" stroke="black" points="846.52,-225.77 856.88,-223.54 847.39,-218.82 846.52,-225.77"/>
</g>
<!-- BehaviorModel -->
<g id="node18" class="node">
<title>BehaviorModel</title>
<g id="a_node18"><a xlink:href="https://w3id.org/pink#BehaviorModel" xlink:title="BehaviorModel">
<ellipse fill="#ffffcc" stroke="black" cx="1141.13" cy="-162" rx="69.26" ry="18"/>
<text xml:space="preserve" text-anchor="middle" x="1141.13" y="-156.95" font-family="Times,serif" font-size="14.00">BehaviorModel</text>
</a>
</g>
</g>
<!-- BehaviorModel&#45;&gt;ArtificialIntelligence -->
<g id="edge8" class="edge">
<title>BehaviorModel&#45;&gt;ArtificialIntelligence</title>
<path fill="none" stroke="black" d="M1099.84,-176.83C1067.6,-187.63 1022.52,-202.73 987.21,-214.55"/>
<polygon fill="none" stroke="black" points="986.39,-211.13 978.02,-217.63 988.62,-217.77 986.39,-211.13"/>
</g>
<!-- ArtificialIntelligence&#45;&gt;DataBasedModel -->
<g id="edge5" class="edge">
<title>ArtificialIntelligence&#45;&gt;DataBasedModel</title>
<path fill="none" stroke="black" d="M932.13,-252.3C932.13,-259.48 932.13,-268.01 932.13,-276.1"/>
<polygon fill="none" stroke="black" points="928.63,-275.9 932.13,-285.9 935.63,-275.9 928.63,-275.9"/>
</g>
</g>
</svg>
