<?xml version="1.0" encoding="UTF-8" standalone="no"?>
<!DOCTYPE svg PUBLIC "-//W3C//DTD SVG 1.1//EN"
 "http://www.w3.org/Graphics/SVG/1.1/DTD/svg11.dtd">
<!-- Generated by graphviz version 13.1.2 (20250808.2320)
 -->
<!-- Pages: 1 -->
<svg width="1888pt" height="188pt"
 viewBox="0.00 0.00 1888.00 188.00" xmlns="http://www.w3.org/2000/svg" xmlns:xlink="http://www.w3.org/1999/xlink">
<g id="graph0" class="graph" transform="scale(1 1) rotate(0) translate(4 184)">
<polygon fill="white" stroke="none" points="-4,4 -4,-184 1883.71,-184 1883.71,4 -4,4"/>
<!-- RandomForest -->
<g id="node1" class="node">
<title>RandomForest</title>
<g id="a_node1"><a xlink:href="https://w3id.org/pink#RandomForest" xlink:title="RandomForest">
<ellipse fill="#ffffcc" stroke="black" cx="1218.9" cy="-18" rx="65.68" ry="18"/>
<text xml:space="preserve" text-anchor="middle" x="1218.9" y="-12.95" font-family="Times,serif" font-size="14.00">RandomForest</text>
</a>
</g>
</g>
<!-- PredictionLearning -->
<g id="node8" class="node">
<title>PredictionLearning</title>
<g id="a_node8"><a xlink:href="https://w3id.org/pink#PredictionLearning" xlink:title="PredictionLearning">
<ellipse fill="#ffffcc" stroke="black" cx="1346.9" cy="-90" rx="82.06" ry="18"/>
<text xml:space="preserve" text-anchor="middle" x="1346.9" y="-84.95" font-family="Times,serif" font-size="14.00">PredictionLearning</text>
</a>
</g>
</g>
<!-- RandomForest&#45;&gt;PredictionLearning -->
<g id="edge2" class="edge">
<title>RandomForest&#45;&gt;PredictionLearning</title>
<path fill="none" stroke="black" d="M1247.31,-34.54C1264.92,-44.16 1287.79,-56.67 1307.18,-67.27"/>
<polygon fill="none" stroke="black" points="1305.46,-70.32 1315.91,-72.05 1308.82,-64.18 1305.46,-70.32"/>
</g>
<!-- SupportVectorMachine -->
<g id="node2" class="node">
<title>SupportVectorMachine</title>
<g id="a_node2"><a xlink:href="https://w3id.org/pink#SupportVectorMachine" xlink:title="SupportVectorMachine">
<ellipse fill="#ffffcc" stroke="black" cx="96.9" cy="-18" rx="96.9" ry="18"/>
<text xml:space="preserve" text-anchor="middle" x="96.9" y="-12.95" font-family="Times,serif" font-size="14.00">SupportVectorMachine</text>
</a>
</g>
</g>
<!-- Classification -->
<g id="node5" class="node">
<title>Classification</title>
<g id="a_node5"><a xlink:href="https://w3id.org/pink#Classification" xlink:title="Classification">
<ellipse fill="#ffffcc" stroke="black" cx="509.9" cy="-90" rx="61.59" ry="18"/>
<text xml:space="preserve" text-anchor="middle" x="509.9" y="-84.95" font-family="Times,serif" font-size="14.00">Classification</text>
</a>
</g>
</g>
<!-- SupportVectorMachine&#45;&gt;Classification -->
<g id="edge12" class="edge">
<title>SupportVectorMachine&#45;&gt;Classification</title>
<path fill="none" stroke="black" d="M166.5,-30.8C244.78,-44.06 370.83,-65.43 446.49,-78.25"/>
<polygon fill="none" stroke="black" points="445.79,-81.68 456.23,-79.9 446.96,-74.78 445.79,-81.68"/>
</g>
<!-- ExtraTreesClassifier -->
<g id="node3" class="node">
<title>ExtraTreesClassifier</title>
<g id="a_node3"><a xlink:href="https://w3id.org/pink#ExtraTreesClassifier" xlink:title="ExtraTreesClassifier">
<ellipse fill="#ffffcc" stroke="black" cx="298.9" cy="-18" rx="86.67" ry="18"/>
<text xml:space="preserve" text-anchor="middle" x="298.9" y="-12.95" font-family="Times,serif" font-size="14.00">ExtraTreesClassifier</text>
</a>
</g>
</g>
<!-- ExtraTreesClassifier&#45;&gt;Classification -->
<g id="edge13" class="edge">
<title>ExtraTreesClassifier&#45;&gt;Classification</title>
<path fill="none" stroke="black" d="M343.65,-33.85C377.64,-45.12 424.38,-60.63 459.65,-72.33"/>
<polygon fill="none" stroke="black" points="458.17,-75.52 468.76,-75.35 460.37,-68.88 458.17,-75.52"/>
</g>
<!-- LogisticRegression -->
<g id="node4" class="node">
<title>LogisticRegression</title>
<g id="a_node4"><a xlink:href="https://w3id.org/pink#LogisticRegression" xlink:title="LogisticRegression">
<ellipse fill="#ffffcc" stroke="black" cx="864.9" cy="-18" rx="82.06" ry="18"/>
<text xml:space="preserve" text-anchor="middle" x="864.9" y="-12.95" font-family="Times,serif" font-size="14.00">LogisticRegression</text>
</a>
</g>
</g>
<!-- Regression -->
<g id="node13" class="node">
<title>Regression</title>
<g id="a_node13"><a xlink:href="https://w3id.org/pink#Regression" xlink:title="Regression">
<ellipse fill="#ffffcc" stroke="black" cx="1049.9" cy="-90" rx="51.86" ry="18"/>
<text xml:space="preserve" text-anchor="middle" x="1049.9" y="-84.95" font-family="Times,serif" font-size="14.00">Regression</text>
</a>
</g>
</g>
<!-- LogisticRegression&#45;&gt;Regression -->
<g id="edge4" class="edge">
<title>LogisticRegression&#45;&gt;Regression</title>
<path fill="none" stroke="black" d="M904.59,-34.02C934.22,-45.23 974.73,-60.55 1005.45,-72.18"/>
<polygon fill="none" stroke="black" points="1003.86,-75.32 1014.45,-75.59 1006.34,-68.77 1003.86,-75.32"/>
</g>
<!-- SupervisedLearning -->
<g id="node15" class="node">
<title>SupervisedLearning</title>
<g id="a_node15"><a xlink:href="https://w3id.org/pink#SupervisedLearning" xlink:title="SupervisedLearning">
<ellipse fill="#ffffcc" stroke="black" stroke-width="2" cx="1197.9" cy="-162" rx="85.13" ry="18"/>
<text xml:space="preserve" text-anchor="middle" x="1197.9" y="-156.95" font-family="Times,serif" font-size="14.00">SupervisedLearning</text>
</a>
</g>
</g>
<!-- Classification&#45;&gt;SupervisedLearning -->
<g id="edge9" class="edge">
<title>Classification&#45;&gt;SupervisedLearning</title>
<path fill="none" stroke="black" d="M567.38,-96.85C687.81,-109.1 967.28,-137.54 1110.24,-152.08"/>
<polygon fill="none" stroke="black" points="1109.74,-155.55 1120.04,-153.08 1110.45,-148.58 1109.74,-155.55"/>
</g>
<!-- Adaboost -->
<g id="node6" class="node">
<title>Adaboost</title>
<g id="a_node6"><a xlink:href="https://w3id.org/pink#Adaboost" xlink:title="Adaboost">
<ellipse fill="#ffffcc" stroke="black" cx="449.9" cy="-18" rx="46.23" ry="18"/>
<text xml:space="preserve" text-anchor="middle" x="449.9" y="-12.95" font-family="Times,serif" font-size="14.00">Adaboost</text>
</a>
</g>
</g>
<!-- Adaboost&#45;&gt;Classification -->
<g id="edge15" class="edge">
<title>Adaboost&#45;&gt;Classification</title>
<path fill="none" stroke="black" d="M464.12,-35.59C471.26,-43.92 480.08,-54.2 488.06,-63.51"/>
<polygon fill="none" stroke="black" points="485.22,-65.58 494.38,-70.89 490.53,-61.02 485.22,-65.58"/>
</g>
<!-- Boosting -->
<g id="node7" class="node">
<title>Boosting</title>
<g id="a_node7"><a xlink:href="https://w3id.org/pink#Boosting" xlink:title="Boosting">
<ellipse fill="#ffffcc" stroke="black" cx="1346.9" cy="-18" rx="44.19" ry="18"/>
<text xml:space="preserve" text-anchor="middle" x="1346.9" y="-12.95" font-family="Times,serif" font-size="14.00">Boosting</text>
</a>
</g>
</g>
<!-- Boosting&#45;&gt;PredictionLearning -->
<g id="edge16" class="edge">
<title>Boosting&#45;&gt;PredictionLearning</title>
<path fill="none" stroke="black" d="M1346.9,-36.3C1346.9,-43.59 1346.9,-52.27 1346.9,-60.46"/>
<polygon fill="none" stroke="black" points="1343.4,-60.38 1346.9,-70.38 1350.4,-60.38 1343.4,-60.38"/>
</g>
<!-- PredictionLearning&#45;&gt;SupervisedLearning -->
<g id="edge6" class="edge">
<title>PredictionLearning&#45;&gt;SupervisedLearning</title>
<path fill="none" stroke="black" d="M1313.46,-106.71C1292.65,-116.49 1265.62,-129.19 1242.93,-139.85"/>
<polygon fill="none" stroke="black" points="1241.46,-136.67 1233.89,-144.09 1244.43,-143.01 1241.46,-136.67"/>
</g>
<!-- Bagging -->
<g id="node9" class="node">
<title>Bagging</title>
<g id="a_node9"><a xlink:href="https://w3id.org/pink#Bagging" xlink:title="Bagging">
<ellipse fill="#ffffcc" stroke="black" cx="1450.9" cy="-18" rx="42.14" ry="18"/>
<text xml:space="preserve" text-anchor="middle" x="1450.9" y="-12.95" font-family="Times,serif" font-size="14.00">Bagging</text>
</a>
</g>
</g>
<!-- Bagging&#45;&gt;PredictionLearning -->
<g id="edge1" class="edge">
<title>Bagging&#45;&gt;PredictionLearning</title>
<path fill="none" stroke="black" d="M1429.1,-33.67C1415.19,-43.04 1396.87,-55.37 1381.05,-66.01"/>
<polygon fill="none" stroke="black" points="1379.19,-63.05 1372.85,-71.54 1383.1,-68.86 1379.19,-63.05"/>
</g>
<!-- CollaborativeFiltering -->
<g id="node10" class="node">
<title>CollaborativeFiltering</title>
<g id="a_node10"><a xlink:href="https://w3id.org/pink#CollaborativeFiltering" xlink:title="CollaborativeFiltering">
<ellipse fill="#ffffcc" stroke="black" cx="1786.9" cy="-18" rx="92.81" ry="18"/>
<text xml:space="preserve" text-anchor="middle" x="1786.9" y="-12.95" font-family="Times,serif" font-size="14.00">CollaborativeFiltering</text>
</a>
</g>
</g>
<!-- RemommenderSystem -->
<g id="node17" class="node">
<title>RemommenderSystem</title>
<g id="a_node17"><a xlink:href="https://w3id.org/pink#RecommenderSystem" xlink:title="RemommenderSystem">
<ellipse fill="#ffffcc" stroke="black" cx="1664.9" cy="-90" rx="96.9" ry="18"/>
<text xml:space="preserve" text-anchor="middle" x="1664.9" y="-84.95" font-family="Times,serif" font-size="14.00">RemommenderSystem</text>
</a>
</g>
</g>
<!-- CollaborativeFiltering&#45;&gt;RemommenderSystem -->
<g id="edge3" class="edge">
<title>CollaborativeFiltering&#45;&gt;RemommenderSystem</title>
<path fill="none" stroke="black" d="M1757.99,-35.59C1741.58,-45 1720.84,-56.9 1703.11,-67.08"/>
<polygon fill="none" stroke="black" points="1701.85,-63.76 1694.92,-71.78 1705.34,-69.84 1701.85,-63.76"/>
</g>
<!-- XGBoostRegressor -->
<g id="node11" class="node">
<title>XGBoostRegressor</title>
<g id="a_node11"><a xlink:href="https://w3id.org/pink#XGBoostRegessor" xlink:title="XGBoostRegressor">
<ellipse fill="#ffffcc" stroke="black" cx="1593.9" cy="-18" rx="82.57" ry="18"/>
<text xml:space="preserve" text-anchor="middle" x="1593.9" y="-12.95" font-family="Times,serif" font-size="14.00">XGBoostRegressor</text>
</a>
</g>
</g>
<!-- XGBoostRegressor&#45;&gt;PredictionLearning -->
<g id="edge5" class="edge">
<title>XGBoostRegressor&#45;&gt;PredictionLearning</title>
<path fill="none" stroke="black" d="M1544.81,-32.91C1505.16,-44.15 1449.2,-60.01 1406.9,-72"/>
<polygon fill="none" stroke="black" points="1406.03,-68.61 1397.36,-74.7 1407.94,-75.34 1406.03,-68.61"/>
</g>
<!-- NaiveBayes -->
<g id="node12" class="node">
<title>NaiveBayes</title>
<g id="a_node12"><a xlink:href="https://w3id.org/pink#NaiveBayes" xlink:title="NaiveBayes">
<ellipse fill="#ffffcc" stroke="black" cx="569.9" cy="-18" rx="55.45" ry="18"/>
<text xml:space="preserve" text-anchor="middle" x="569.9" y="-12.95" font-family="Times,serif" font-size="14.00">NaiveBayes</text>
</a>
</g>
</g>
<!-- NaiveBayes&#45;&gt;Classification -->
<g id="edge8" class="edge">
<title>NaiveBayes&#45;&gt;Classification</title>
<path fill="none" stroke="black" d="M555.68,-35.59C548.54,-43.92 539.73,-54.2 531.75,-63.51"/>
<polygon fill="none" stroke="black" points="529.27,-61.02 525.42,-70.89 534.59,-65.58 529.27,-61.02"/>
</g>
<!-- Regression&#45;&gt;SupervisedLearning -->
<g id="edge11" class="edge">
<title>Regression&#45;&gt;SupervisedLearning</title>
<path fill="none" stroke="black" d="M1079.85,-105.17C1100.9,-115.12 1129.41,-128.61 1153.14,-139.83"/>
<polygon fill="none" stroke="black" points="1151.42,-142.89 1161.96,-144 1154.41,-136.56 1151.42,-142.89"/>
</g>
<!-- StepwiseRegression -->
<g id="node14" class="node">
<title>StepwiseRegression</title>
<g id="a_node14"><a xlink:href="https://w3id.org/pink#StepwiseRegression" xlink:title="StepwiseRegression">
<ellipse fill="#ffffcc" stroke="black" cx="1049.9" cy="-18" rx="85.13" ry="18"/>
<text xml:space="preserve" text-anchor="middle" x="1049.9" y="-12.95" font-family="Times,serif" font-size="14.00">StepwiseRegression</text>
</a>
</g>
</g>
<!-- StepwiseRegression&#45;&gt;Regression -->
<g id="edge10" class="edge">
<title>StepwiseRegression&#45;&gt;Regression</title>
<path fill="none" stroke="black" d="M1049.9,-36.3C1049.9,-43.59 1049.9,-52.27 1049.9,-60.46"/>
<polygon fill="none" stroke="black" points="1046.4,-60.38 1049.9,-70.38 1053.4,-60.38 1046.4,-60.38"/>
</g>
<!-- DecisionTree -->
<g id="node16" class="node">
<title>DecisionTree</title>
<g id="a_node16"><a xlink:href="https://w3id.org/pink#DecisionTree" xlink:title="DecisionTree">
<ellipse fill="#ffffcc" stroke="black" cx="703.9" cy="-18" rx="60.56" ry="18"/>
<text xml:space="preserve" text-anchor="middle" x="703.9" y="-12.95" font-family="Times,serif" font-size="14.00">DecisionTree</text>
</a>
</g>
</g>
<!-- DecisionTree&#45;&gt;Classification -->
<g id="edge14" class="edge">
<title>DecisionTree&#45;&gt;Classification</title>
<path fill="none" stroke="black" d="M666.5,-32.5C635.6,-43.65 591.53,-59.55 558.01,-71.64"/>
<polygon fill="none" stroke="black" points="557.17,-68.23 548.95,-74.91 559.54,-74.81 557.17,-68.23"/>
</g>
<!-- RemommenderSystem&#45;&gt;SupervisedLearning -->
<g id="edge7" class="edge">
<title>RemommenderSystem&#45;&gt;SupervisedLearning</title>
<path fill="none" stroke="black" d="M1591.16,-102.05C1505.84,-114.84 1365.85,-135.83 1277.94,-149"/>
<polygon fill="none" stroke="black" points="1277.56,-145.52 1268.19,-150.46 1278.6,-152.44 1277.56,-145.52"/>
</g>
</g>
</svg>
