<?xml version="1.0" encoding="UTF-8" standalone="no"?>
<!DOCTYPE svg PUBLIC "-//W3C//DTD SVG 1.1//EN"
 "http://www.w3.org/Graphics/SVG/1.1/DTD/svg11.dtd">
<!-- Generated by graphviz version 13.1.2 (20250808.2320)
 -->
<!-- Pages: 1 -->
<svg width="1686pt" height="260pt"
 viewBox="0.00 0.00 1686.00 260.00" xmlns="http://www.w3.org/2000/svg" xmlns:xlink="http://www.w3.org/1999/xlink">
<g id="graph0" class="graph" transform="scale(1 1) rotate(0) translate(4 256)">
<polygon fill="white" stroke="none" points="-4,4 -4,-256 1682.33,-256 1682.33,4 -4,4"/>
<!-- TransformerAI -->
<g id="node1" class="node">
<title>TransformerAI</title>
<g id="a_node1"><a xlink:href="https://w3id.org/pink#TransformerAI" xlink:title="TransformerAI">
<ellipse fill="#ffffcc" stroke="black" cx="1029.59" cy="-162" rx="67.22" ry="18"/>
<text xml:space="preserve" text-anchor="middle" x="1029.59" y="-156.95" font-family="Times,serif" font-size="14.00">TransformerAI</text>
</a>
</g>
</g>
<!-- DeepLearning -->
<g id="node10" class="node">
<title>DeepLearning</title>
<g id="a_node10"><a xlink:href="https://w3id.org/pink#DeepLearning" xlink:title="DeepLearning">
<ellipse fill="#ffffcc" stroke="black" stroke-width="2" cx="936.59" cy="-234" rx="63.63" ry="18"/>
<text xml:space="preserve" text-anchor="middle" x="936.59" y="-228.95" font-family="Times,serif" font-size="14.00">DeepLearning</text>
</a>
</g>
</g>
<!-- TransformerAI&#45;&gt;DeepLearning -->
<g id="edge10" class="edge">
<title>TransformerAI&#45;&gt;DeepLearning</title>
<path fill="none" stroke="black" d="M1008.02,-179.24C995.98,-188.29 980.79,-199.73 967.51,-209.72"/>
<polygon fill="none" stroke="black" points="965.78,-206.65 959.9,-215.46 969.99,-212.24 965.78,-206.65"/>
</g>
<!-- GenerativeAdversarialNetwork -->
<g id="node2" class="node">
<title>GenerativeAdversarialNetwork</title>
<g id="a_node2"><a xlink:href="https://w3id.org/pink#GenerativeAdversarialNetwork" xlink:title="GenerativeAdversarialNetwork">
<ellipse fill="#ffffcc" stroke="black" cx="126.59" cy="-162" rx="126.59" ry="18"/>
<text xml:space="preserve" text-anchor="middle" x="126.59" y="-156.95" font-family="Times,serif" font-size="14.00">GenerativeAdversarialNetwork</text>
</a>
</g>
</g>
<!-- GenerativeAdversarialNetwork&#45;&gt;DeepLearning -->
<g id="edge4" class="edge">
<title>GenerativeAdversarialNetwork&#45;&gt;DeepLearning</title>
<path fill="none" stroke="black" d="M216.93,-174.97C231.83,-176.78 247.13,-178.52 261.59,-180 480.16,-202.33 739.4,-220.31 863.4,-228.38"/>
<polygon fill="none" stroke="black" points="862.9,-231.86 873.1,-229.01 863.35,-224.87 862.9,-231.86"/>
</g>
<!-- RecurrentNeuralNetwork -->
<g id="node3" class="node">
<title>RecurrentNeuralNetwork</title>
<g id="a_node3"><a xlink:href="https://w3id.org/pink#RecurrentNeuralNetwork" xlink:title="RecurrentNeuralNetwork">
<ellipse fill="#ffffcc" stroke="black" cx="375.59" cy="-162" rx="104.58" ry="18"/>
<text xml:space="preserve" text-anchor="middle" x="375.59" y="-156.95" font-family="Times,serif" font-size="14.00">RecurrentNeuralNetwork</text>
</a>
</g>
</g>
<!-- RecurrentNeuralNetwork&#45;&gt;DeepLearning -->
<g id="edge7" class="edge">
<title>RecurrentNeuralNetwork&#45;&gt;DeepLearning</title>
<path fill="none" stroke="black" d="M451.89,-174.7C464.47,-176.54 477.39,-178.37 489.59,-180 622.41,-197.77 777.86,-215.52 866.03,-225.3"/>
<polygon fill="none" stroke="black" points="865.4,-228.75 875.72,-226.37 866.17,-221.79 865.4,-228.75"/>
</g>
<!-- ConvolutionNeuralNetwork -->
<g id="node4" class="node">
<title>ConvolutionNeuralNetwork</title>
<g id="a_node4"><a xlink:href="https://w3id.org/pink#ConvolutionNeuralNetwork" xlink:title="ConvolutionNeuralNetwork">
<ellipse fill="#ffffcc" stroke="black" cx="612.59" cy="-162" rx="114.3" ry="18"/>
<text xml:space="preserve" text-anchor="middle" x="612.59" y="-156.95" font-family="Times,serif" font-size="14.00">ConvolutionNeuralNetwork</text>
</a>
</g>
</g>
<!-- ConvolutionNeuralNetwork&#45;&gt;DeepLearning -->
<g id="edge11" class="edge">
<title>ConvolutionNeuralNetwork&#45;&gt;DeepLearning</title>
<path fill="none" stroke="black" d="M678.15,-177.17C735.67,-189.59 818.69,-207.53 875,-219.69"/>
<polygon fill="none" stroke="black" points="874.24,-223.11 884.76,-221.8 875.72,-216.27 874.24,-223.11"/>
</g>
<!-- SiameseNeuralNetwork -->
<g id="node5" class="node">
<title>SiameseNeuralNetwork</title>
<g id="a_node5"><a xlink:href="https://w3id.org/pink#SiameseNeuralNetwork" xlink:title="SiameseNeuralNetwork">
<ellipse fill="#ffffcc" stroke="black" cx="844.59" cy="-162" rx="99.46" ry="18"/>
<text xml:space="preserve" text-anchor="middle" x="844.59" y="-156.95" font-family="Times,serif" font-size="14.00">SiameseNeuralNetwork</text>
</a>
</g>
</g>
<!-- SiameseNeuralNetwork&#45;&gt;DeepLearning -->
<g id="edge8" class="edge">
<title>SiameseNeuralNetwork&#45;&gt;DeepLearning</title>
<path fill="none" stroke="black" d="M866.86,-179.95C878.5,-188.8 892.93,-199.78 905.64,-209.45"/>
<polygon fill="none" stroke="black" points="903.24,-212.02 913.32,-215.29 907.48,-206.45 903.24,-212.02"/>
</g>
<!-- GenerativeAI -->
<g id="node6" class="node">
<title>GenerativeAI</title>
<g id="a_node6"><a xlink:href="https://w3id.org/emmo/hume#GenerativeAI" xlink:title="GenerativeAI">
<ellipse fill="#ffffcc" stroke="black" cx="1175.59" cy="-162" rx="61.08" ry="18"/>
<text xml:space="preserve" text-anchor="middle" x="1175.59" y="-156.95" font-family="Times,serif" font-size="14.00">GenerativeAI</text>
</a>
</g>
</g>
<!-- GenerativeAI&#45;&gt;DeepLearning -->
<g id="edge5" class="edge">
<title>GenerativeAI&#45;&gt;DeepLearning</title>
<path fill="none" stroke="black" d="M1133.41,-175.35C1093.84,-186.94 1034.44,-204.34 991.25,-216.99"/>
<polygon fill="none" stroke="black" points="990.43,-213.58 981.82,-219.75 992.4,-220.3 990.43,-213.58"/>
</g>
<!-- GraphNeuralNetwork -->
<g id="node7" class="node">
<title>GraphNeuralNetwork</title>
<g id="a_node7"><a xlink:href="https://w3id.org/pink#GraphNeuralNetwork" xlink:title="GraphNeuralNetwork">
<ellipse fill="#ffffcc" stroke="black" cx="1345.59" cy="-162" rx="91.27" ry="18"/>
<text xml:space="preserve" text-anchor="middle" x="1345.59" y="-156.95" font-family="Times,serif" font-size="14.00">GraphNeuralNetwork</text>
</a>
</g>
</g>
<!-- GraphNeuralNetwork&#45;&gt;DeepLearning -->
<g id="edge6" class="edge">
<title>GraphNeuralNetwork&#45;&gt;DeepLearning</title>
<path fill="none" stroke="black" d="M1278.51,-174.48C1201.98,-187.58 1077.68,-208.85 1001.9,-221.82"/>
<polygon fill="none" stroke="black" points="1001.38,-218.36 992.12,-223.5 1002.57,-225.26 1001.38,-218.36"/>
</g>
<!-- ModernGenerativeAI -->
<g id="node8" class="node">
<title>ModernGenerativeAI</title>
<g id="a_node8"><a xlink:href="https://w3id.org/pink#ModernGenerativeAI" xlink:title="ModernGenerativeAI">
<ellipse fill="#ffffcc" stroke="black" cx="1102.59" cy="-90" rx="90.76" ry="18"/>
<text xml:space="preserve" text-anchor="middle" x="1102.59" y="-84.95" font-family="Times,serif" font-size="14.00">ModernGenerativeAI</text>
</a>
</g>
</g>
<!-- ModernGenerativeAI&#45;&gt;TransformerAI -->
<g id="edge2" class="edge">
<title>ModernGenerativeAI&#45;&gt;TransformerAI</title>
<path fill="none" stroke="black" d="M1084.92,-107.95C1076.04,-116.46 1065.12,-126.93 1055.33,-136.32"/>
<polygon fill="none" stroke="black" points="1052.98,-133.72 1048.19,-143.16 1057.83,-138.77 1052.98,-133.72"/>
</g>
<!-- ModernGenerativeAI&#45;&gt;GenerativeAI -->
<g id="edge1" class="edge">
<title>ModernGenerativeAI&#45;&gt;GenerativeAI</title>
<path fill="none" stroke="black" d="M1120.26,-107.95C1129.27,-116.58 1140.38,-127.24 1150.28,-136.73"/>
<polygon fill="none" stroke="black" points="1147.85,-139.25 1157.49,-143.65 1152.69,-134.2 1147.85,-139.25"/>
</g>
<!-- DeepFeedForwardNetwork -->
<g id="node9" class="node">
<title>DeepFeedForwardNetwork</title>
<g id="a_node9"><a xlink:href="https://w3id.org/pink#DeepFeedForwardNetwork" xlink:title="DeepFeedForwardNetwork">
<ellipse fill="#ffffcc" stroke="black" cx="1566.59" cy="-162" rx="111.74" ry="18"/>
<text xml:space="preserve" text-anchor="middle" x="1566.59" y="-156.95" font-family="Times,serif" font-size="14.00">DeepFeedForwardNetwork</text>
</a>
</g>
</g>
<!-- DeepFeedForwardNetwork&#45;&gt;DeepLearning -->
<g id="edge3" class="edge">
<title>DeepFeedForwardNetwork&#45;&gt;DeepLearning</title>
<path fill="none" stroke="black" d="M1485.61,-174.79C1472.25,-176.61 1458.54,-178.42 1445.59,-180 1289.92,-199.03 1106.94,-217.02 1008.31,-226.35"/>
<polygon fill="none" stroke="black" points="1008.13,-222.85 998.51,-227.27 1008.79,-229.82 1008.13,-222.85"/>
</g>
<!-- LargeLanguageModel -->
<g id="node11" class="node">
<title>LargeLanguageModel</title>
<g id="a_node11"><a xlink:href="https://w3id.org/pink#LargeLanguageModel" xlink:title="LargeLanguageModel">
<ellipse fill="#ffffcc" stroke="black" cx="1102.59" cy="-18" rx="93.32" ry="18"/>
<text xml:space="preserve" text-anchor="middle" x="1102.59" y="-12.95" font-family="Times,serif" font-size="14.00">LargeLanguageModel</text>
</a>
</g>
</g>
<!-- LargeLanguageModel&#45;&gt;ModernGenerativeAI -->
<g id="edge9" class="edge">
<title>LargeLanguageModel&#45;&gt;ModernGenerativeAI</title>
<path fill="none" stroke="black" d="M1102.59,-36.3C1102.59,-43.59 1102.59,-52.27 1102.59,-60.46"/>
<polygon fill="none" stroke="black" points="1099.09,-60.38 1102.59,-70.38 1106.09,-60.38 1099.09,-60.38"/>
</g>
</g>
</svg>
