<?xml version="1.0" encoding="UTF-8" standalone="no"?>
<!DOCTYPE svg PUBLIC "-//W3C//DTD SVG 1.1//EN"
 "http://www.w3.org/Graphics/SVG/1.1/DTD/svg11.dtd">
<!-- Generated by graphviz version 13.1.2 (20250808.2320)
 -->
<!-- Pages: 1 -->
<svg width="2611pt" height="260pt"
 viewBox="0.00 0.00 2611.00 260.00" xmlns="http://www.w3.org/2000/svg" xmlns:xlink="http://www.w3.org/1999/xlink">
<g id="graph0" class="graph" transform="scale(1 1) rotate(0) translate(4 256)">
<polygon fill="white" stroke="none" points="-4,4 -4,-256 2606.98,-256 2606.98,4 -4,4"/>
<!-- DeepLearning -->
<g id="node1" class="node">
<title>DeepLearning</title>
<g id="a_node1"><a xlink:href="https://w3id.org/pink#DeepLearning" xlink:title="DeepLearning">
<ellipse fill="#ffffcc" stroke="black" stroke-width="2" cx="1531.3" cy="-90" rx="63.63" ry="18"/>
<text xml:space="preserve" text-anchor="middle" x="1531.3" y="-84.95" font-family="Times,serif" font-size="14.00">DeepLearning</text>
</a>
</g>
</g>
<!-- ArtificialNeuralNetwork -->
<g id="node8" class="node">
<title>ArtificialNeuralNetwork</title>
<g id="a_node8"><a xlink:href="https://w3id.org/pink#ArtificialNeuralNetwork" xlink:title="ArtificialNeuralNetwork">
<ellipse fill="#ffffcc" stroke="black" cx="1531.3" cy="-162" rx="102.02" ry="18"/>
<text xml:space="preserve" text-anchor="middle" x="1531.3" y="-156.95" font-family="Times,serif" font-size="14.00">ArtificialNeuralNetwork</text>
</a>
</g>
</g>
<!-- DeepLearning&#45;&gt;ArtificialNeuralNetwork -->
<g id="edge18" class="edge">
<title>DeepLearning&#45;&gt;ArtificialNeuralNetwork</title>
<path fill="none" stroke="black" d="M1531.3,-108.66C1531.3,-115.76 1531.3,-124.14 1531.3,-132.08"/>
<polygon fill="none" stroke="black" points="1527.8,-132.07 1531.3,-142.07 1534.8,-132.07 1527.8,-132.07"/>
</g>
<!-- LowDensitySeparationModel -->
<g id="node2" class="node">
<title>LowDensitySeparationModel</title>
<g id="a_node2"><a xlink:href="https://w3id.org/pink#LowDensitySeparationModel" xlink:title="LowDensitySeparationModel">
<ellipse fill="#ffffcc" stroke="black" cx="567.3" cy="-90" rx="120.45" ry="18"/>
<text xml:space="preserve" text-anchor="middle" x="567.3" y="-84.95" font-family="Times,serif" font-size="14.00">LowDensitySeparationModel</text>
</a>
</g>
</g>
<!-- SemiSupervicedLearning -->
<g id="node9" class="node">
<title>SemiSupervicedLearning</title>
<g id="a_node9"><a xlink:href="https://w3id.org/pink#SemiSupervicedLearning" xlink:title="SemiSupervicedLearning">
<ellipse fill="#ffffcc" stroke="black" cx="450.3" cy="-162" rx="105.09" ry="18"/>
<text xml:space="preserve" text-anchor="middle" x="450.3" y="-156.95" font-family="Times,serif" font-size="14.00">SemiSupervicedLearning</text>
</a>
</g>
</g>
<!-- LowDensitySeparationModel&#45;&gt;SemiSupervicedLearning -->
<g id="edge12" class="edge">
<title>LowDensitySeparationModel&#45;&gt;SemiSupervicedLearning</title>
<path fill="none" stroke="black" d="M538.98,-107.95C523.6,-117.15 504.4,-128.64 487.79,-138.57"/>
<polygon fill="none" stroke="black" points="486.45,-135.3 479.66,-143.43 490.04,-141.3 486.45,-135.3"/>
</g>
<!-- ExtraTreesClassifier -->
<g id="node3" class="node">
<title>ExtraTreesClassifier</title>
<g id="a_node3"><a xlink:href="https://w3id.org/pink#ExtraTreesClassifier" xlink:title="ExtraTreesClassifier">
<ellipse fill="#ffffcc" stroke="black" cx="760.3" cy="-18" rx="86.67" ry="18"/>
<text xml:space="preserve" text-anchor="middle" x="760.3" y="-12.95" font-family="Times,serif" font-size="14.00">ExtraTreesClassifier</text>
</a>
</g>
</g>
<!-- EnsembleLearning -->
<g id="node10" class="node">
<title>EnsembleLearning</title>
<g id="a_node10"><a xlink:href="https://w3id.org/pink#EnsembleLearning" xlink:title="EnsembleLearning">
<ellipse fill="#ffffcc" stroke="black" cx="715.3" cy="-162" rx="81.04" ry="18"/>
<text xml:space="preserve" text-anchor="middle" x="715.3" y="-156.95" font-family="Times,serif" font-size="14.00">EnsembleLearning</text>
</a>
</g>
</g>
<!-- ExtraTreesClassifier&#45;&gt;EnsembleLearning -->
<g id="edge1" class="edge">
<title>ExtraTreesClassifier&#45;&gt;EnsembleLearning</title>
<path fill="none" stroke="black" d="M750.52,-36.2C745.09,-46.35 738.59,-59.6 734.3,-72 727.5,-91.65 722.67,-114.62 719.58,-132.31"/>
<polygon fill="none" stroke="black" points="716.14,-131.67 717.97,-142.1 723.05,-132.81 716.14,-131.67"/>
</g>
<!-- Classification -->
<g id="node22" class="node">
<title>Classification</title>
<g id="a_node22"><a xlink:href="https://w3id.org/pink#Classification" xlink:title="Classification">
<ellipse fill="lightgray" stroke="black" cx="805.3" cy="-90" rx="61.59" ry="18"/>
<text xml:space="preserve" text-anchor="middle" x="805.3" y="-84.95" font-family="Times,serif" font-size="14.00">Classification</text>
</a>
</g>
</g>
<!-- ExtraTreesClassifier&#45;&gt;Classification -->
<g id="edge22" class="edge">
<title>ExtraTreesClassifier&#45;&gt;Classification</title>
<path fill="none" stroke="black" d="M771.43,-36.3C776.5,-44.19 782.61,-53.7 788.24,-62.45"/>
<polygon fill="none" stroke="black" points="785.14,-64.1 793.49,-70.62 791.03,-60.32 785.14,-64.1"/>
</g>
<!-- Clustering -->
<g id="node4" class="node">
<title>Clustering</title>
<g id="a_node4"><a xlink:href="https://w3id.org/pink#Clustering" xlink:title="Clustering">
<ellipse fill="#ffffcc" stroke="black" cx="49.3" cy="-90" rx="49.3" ry="18"/>
<text xml:space="preserve" text-anchor="middle" x="49.3" y="-84.95" font-family="Times,serif" font-size="14.00">Clustering</text>
</a>
</g>
</g>
<!-- UnsupervicedLearning -->
<g id="node7" class="node">
<title>UnsupervicedLearning</title>
<g id="a_node7"><a xlink:href="https://w3id.org/pink#UnsupervicedLearning" xlink:title="UnsupervicedLearning">
<ellipse fill="#ffffcc" stroke="black" cx="110.3" cy="-162" rx="95.37" ry="18"/>
<text xml:space="preserve" text-anchor="middle" x="110.3" y="-156.95" font-family="Times,serif" font-size="14.00">UnsupervicedLearning</text>
</a>
</g>
</g>
<!-- Clustering&#45;&gt;UnsupervicedLearning -->
<g id="edge14" class="edge">
<title>Clustering&#45;&gt;UnsupervicedLearning</title>
<path fill="none" stroke="black" d="M63.76,-107.59C71.02,-115.92 79.98,-126.2 88.09,-135.51"/>
<polygon fill="none" stroke="black" points="85.33,-137.66 94.53,-142.9 90.6,-133.06 85.33,-137.66"/>
</g>
<!-- LinearDiscriminantAnalysis -->
<g id="node5" class="node">
<title>LinearDiscriminantAnalysis</title>
<g id="a_node5"><a xlink:href="https://w3id.org/pink#LinearDiscriminantAnalysis" xlink:title="LinearDiscriminantAnalysis">
<ellipse fill="#ffffcc" stroke="black" cx="2121.3" cy="-90" rx="115.84" ry="18"/>
<text xml:space="preserve" text-anchor="middle" x="2121.3" y="-84.95" font-family="Times,serif" font-size="14.00">LinearDiscriminantAnalysis</text>
</a>
</g>
</g>
<!-- DimensionalityReduction -->
<g id="node18" class="node">
<title>DimensionalityReduction</title>
<g id="a_node18"><a xlink:href="https://w3id.org/pink#DimensionalityReduction" xlink:title="DimensionalityReduction">
<ellipse fill="#ffffcc" stroke="black" cx="1867.3" cy="-162" rx="106.11" ry="18"/>
<text xml:space="preserve" text-anchor="middle" x="1867.3" y="-156.95" font-family="Times,serif" font-size="14.00">DimensionalityReduction</text>
</a>
</g>
</g>
<!-- LinearDiscriminantAnalysis&#45;&gt;DimensionalityReduction -->
<g id="edge5" class="edge">
<title>LinearDiscriminantAnalysis&#45;&gt;DimensionalityReduction</title>
<path fill="none" stroke="black" d="M2066.19,-106.19C2026.9,-117.02 1973.91,-131.62 1932.51,-143.03"/>
<polygon fill="none" stroke="black" points="1931.61,-139.65 1922.9,-145.68 1933.47,-146.4 1931.61,-139.65"/>
</g>
<!-- MonteCarloLearning -->
<g id="node6" class="node">
<title>MonteCarloLearning</title>
<g id="a_node6"><a xlink:href="https://w3id.org/pink#MonteCarloLearning" xlink:title="MonteCarloLearning">
<ellipse fill="#ffffcc" stroke="black" cx="1148.3" cy="-90" rx="89.23" ry="18"/>
<text xml:space="preserve" text-anchor="middle" x="1148.3" y="-84.95" font-family="Times,serif" font-size="14.00">MonteCarloLearning</text>
</a>
</g>
</g>
<!-- ReinforcedLearning -->
<g id="node17" class="node">
<title>ReinforcedLearning</title>
<g id="a_node17"><a xlink:href="https://w3id.org/pink#ReinforcedLearning" xlink:title="ReinforcedLearning">
<ellipse fill="#ffffcc" stroke="black" cx="1118.3" cy="-162" rx="85.13" ry="18"/>
<text xml:space="preserve" text-anchor="middle" x="1118.3" y="-156.95" font-family="Times,serif" font-size="14.00">ReinforcedLearning</text>
</a>
</g>
</g>
<!-- MonteCarloLearning&#45;&gt;ReinforcedLearning -->
<g id="edge11" class="edge">
<title>MonteCarloLearning&#45;&gt;ReinforcedLearning</title>
<path fill="none" stroke="black" d="M1140.89,-108.3C1137.66,-115.85 1133.78,-124.88 1130.17,-133.32"/>
<polygon fill="none" stroke="black" points="1126.95,-131.93 1126.23,-142.5 1133.39,-134.69 1126.95,-131.93"/>
</g>
<!-- MachineLearning -->
<g id="node21" class="node">
<title>MachineLearning</title>
<g id="a_node21"><a xlink:href="https://w3id.org/emmo/hume#MachineLearning" xlink:title="MachineLearning">
<ellipse fill="#ffffcc" stroke="black" stroke-width="2" cx="899.3" cy="-234" rx="76.94" ry="18"/>
<text xml:space="preserve" text-anchor="middle" x="899.3" y="-228.95" font-family="Times,serif" font-size="14.00">MachineLearning</text>
</a>
</g>
</g>
<!-- UnsupervicedLearning&#45;&gt;MachineLearning -->
<g id="edge13" class="edge">
<title>UnsupervicedLearning&#45;&gt;MachineLearning</title>
<path fill="none" stroke="black" d="M195.12,-170.52C347.37,-184.03 665.2,-212.23 816.2,-225.63"/>
<polygon fill="none" stroke="black" points="815.88,-229.11 826.15,-226.51 816.5,-222.14 815.88,-229.11"/>
</g>
<!-- ArtificialNeuralNetwork&#45;&gt;MachineLearning -->
<g id="edge3" class="edge">
<title>ArtificialNeuralNetwork&#45;&gt;MachineLearning</title>
<path fill="none" stroke="black" d="M1446.73,-172.37C1324.37,-185.92 1099.55,-210.82 979.62,-224.1"/>
<polygon fill="none" stroke="black" points="979.41,-220.61 969.86,-225.19 980.18,-227.56 979.41,-220.61"/>
</g>
<!-- SemiSupervicedLearning&#45;&gt;MachineLearning -->
<g id="edge2" class="edge">
<title>SemiSupervicedLearning&#45;&gt;MachineLearning</title>
<path fill="none" stroke="black" d="M526.22,-174.83C609.33,-187.79 741.76,-208.44 824.45,-221.33"/>
<polygon fill="none" stroke="black" points="823.86,-224.78 834.28,-222.86 824.94,-217.86 823.86,-224.78"/>
</g>
<!-- EnsembleLearning&#45;&gt;MachineLearning -->
<g id="edge19" class="edge">
<title>EnsembleLearning&#45;&gt;MachineLearning</title>
<path fill="none" stroke="black" d="M754.78,-178.02C782.24,-188.46 819.09,-202.48 848.71,-213.75"/>
<polygon fill="none" stroke="black" points="847.26,-216.94 857.85,-217.23 849.75,-210.4 847.26,-216.94"/>
</g>
<!-- Autoencoder -->
<g id="node11" class="node">
<title>Autoencoder</title>
<g id="a_node11"><a xlink:href="https://w3id.org/pink#Autoencoder" xlink:title="Autoencoder">
<ellipse fill="#ffffcc" stroke="black" cx="1671.3" cy="-90" rx="58.52" ry="18"/>
<text xml:space="preserve" text-anchor="middle" x="1671.3" y="-84.95" font-family="Times,serif" font-size="14.00">Autoencoder</text>
</a>
</g>
</g>
<!-- Autoencoder&#45;&gt;ArtificialNeuralNetwork -->
<g id="edge15" class="edge">
<title>Autoencoder&#45;&gt;ArtificialNeuralNetwork</title>
<path fill="none" stroke="black" d="M1641.61,-105.85C1621.94,-115.68 1595.81,-128.75 1573.92,-139.69"/>
<polygon fill="none" stroke="black" points="1572.62,-136.43 1565.24,-144.03 1575.75,-142.69 1572.62,-136.43"/>
</g>
<!-- Autoencoder&#45;&gt;DimensionalityReduction -->
<g id="edge16" class="edge">
<title>Autoencoder&#45;&gt;DimensionalityReduction</title>
<path fill="none" stroke="black" d="M1708.17,-104.17C1737.59,-114.67 1779.24,-129.55 1812.56,-141.45"/>
<polygon fill="none" stroke="black" points="1811.03,-144.62 1821.63,-144.69 1813.39,-138.03 1811.03,-144.62"/>
</g>
<!-- TDistributedStochasticNeighborEmbedding -->
<g id="node12" class="node">
<title>TDistributedStochasticNeighborEmbedding</title>
<g id="a_node12"><a xlink:href="https://w3id.org/pink#TDistributedStochasticNeighborEmbedding" xlink:title="TDistributedStochasticNeighborEmbedding">
<ellipse fill="#ffffcc" stroke="black" cx="2429.3" cy="-90" rx="173.67" ry="18"/>
<text xml:space="preserve" text-anchor="middle" x="2429.3" y="-84.95" font-family="Times,serif" font-size="14.00">TDistributedStochasticNeighborEmbedding</text>
</a>
</g>
</g>
<!-- TDistributedStochasticNeighborEmbedding&#45;&gt;DimensionalityReduction -->
<g id="edge21" class="edge">
<title>TDistributedStochasticNeighborEmbedding&#45;&gt;DimensionalityReduction</title>
<path fill="none" stroke="black" d="M2321.28,-104.46C2217.2,-117.42 2061.31,-136.84 1961.97,-149.21"/>
<polygon fill="none" stroke="black" points="1961.74,-145.71 1952.25,-150.42 1962.61,-152.66 1961.74,-145.71"/>
</g>
<!-- DynamicProgramming -->
<g id="node13" class="node">
<title>DynamicProgramming</title>
<g id="a_node13"><a xlink:href="https://w3id.org/pink#DynamicProgramming" xlink:title="DynamicProgramming">
<ellipse fill="#ffffcc" stroke="black" cx="1352.3" cy="-90" rx="96.9" ry="18"/>
<text xml:space="preserve" text-anchor="middle" x="1352.3" y="-84.95" font-family="Times,serif" font-size="14.00">DynamicProgramming</text>
</a>
</g>
</g>
<!-- DynamicProgramming&#45;&gt;ReinforcedLearning -->
<g id="edge8" class="edge">
<title>DynamicProgramming&#45;&gt;ReinforcedLearning</title>
<path fill="none" stroke="black" d="M1302.68,-105.85C1265.77,-116.89 1215.29,-131.99 1176.48,-143.6"/>
<polygon fill="none" stroke="black" points="1175.89,-140.12 1167.31,-146.34 1177.89,-146.83 1175.89,-140.12"/>
</g>
<!-- GraphBasedLearning -->
<g id="node14" class="node">
<title>GraphBasedLearning</title>
<g id="a_node14"><a xlink:href="https://w3id.org/pink#GraphBasedLearning" xlink:title="GraphBasedLearning">
<ellipse fill="#ffffcc" stroke="black" cx="206.3" cy="-90" rx="89.74" ry="18"/>
<text xml:space="preserve" text-anchor="middle" x="206.3" y="-84.95" font-family="Times,serif" font-size="14.00">GraphBasedLearning</text>
</a>
</g>
</g>
<!-- GraphBasedLearning&#45;&gt;SemiSupervicedLearning -->
<g id="edge7" class="edge">
<title>GraphBasedLearning&#45;&gt;SemiSupervicedLearning</title>
<path fill="none" stroke="black" d="M256.27,-105.33C294.07,-116.18 346.25,-131.15 386.98,-142.83"/>
<polygon fill="none" stroke="black" points="385.84,-146.15 396.42,-145.54 387.77,-139.42 385.84,-146.15"/>
</g>
<!-- SupervisedLearning -->
<g id="node15" class="node">
<title>SupervisedLearning</title>
<g id="a_node15"><a xlink:href="https://w3id.org/pink#SupervisedLearning" xlink:title="SupervisedLearning">
<ellipse fill="#ffffcc" stroke="black" stroke-width="2" cx="899.3" cy="-162" rx="85.13" ry="18"/>
<text xml:space="preserve" text-anchor="middle" x="899.3" y="-156.95" font-family="Times,serif" font-size="14.00">SupervisedLearning</text>
</a>
</g>
</g>
<!-- SupervisedLearning&#45;&gt;MachineLearning -->
<g id="edge9" class="edge">
<title>SupervisedLearning&#45;&gt;MachineLearning</title>
<path fill="none" stroke="black" d="M899.3,-180.66C899.3,-187.66 899.3,-195.88 899.3,-203.72"/>
<polygon fill="none" stroke="black" points="895.8,-203.58 899.3,-213.58 902.8,-203.58 895.8,-203.58"/>
</g>
<!-- SelfTraining -->
<g id="node16" class="node">
<title>SelfTraining</title>
<g id="a_node16"><a xlink:href="https://w3id.org/pink#SelfTraining" xlink:title="SelfTraining">
<ellipse fill="#ffffcc" stroke="black" cx="371.3" cy="-90" rx="57.49" ry="18"/>
<text xml:space="preserve" text-anchor="middle" x="371.3" y="-84.95" font-family="Times,serif" font-size="14.00">SelfTraining</text>
</a>
</g>
</g>
<!-- SelfTraining&#45;&gt;SemiSupervicedLearning -->
<g id="edge4" class="edge">
<title>SelfTraining&#45;&gt;SemiSupervicedLearning</title>
<path fill="none" stroke="black" d="M389.63,-107.24C399.41,-115.9 411.65,-126.75 422.57,-136.43"/>
<polygon fill="none" stroke="black" points="420.04,-138.86 429.85,-142.87 424.68,-133.62 420.04,-138.86"/>
</g>
<!-- ReinforcedLearning&#45;&gt;MachineLearning -->
<g id="edge6" class="edge">
<title>ReinforcedLearning&#45;&gt;MachineLearning</title>
<path fill="none" stroke="black" d="M1072.66,-177.59C1038.58,-188.48 991.81,-203.43 955.44,-215.06"/>
<polygon fill="none" stroke="black" points="954.41,-211.71 945.95,-218.09 956.55,-218.38 954.41,-211.71"/>
</g>
<!-- DimensionalityReduction&#45;&gt;MachineLearning -->
<g id="edge20" class="edge">
<title>DimensionalityReduction&#45;&gt;MachineLearning</title>
<path fill="none" stroke="black" d="M1772.06,-170.28C1732,-173.33 1684.89,-176.87 1642.3,-180 1403.8,-197.52 1122.16,-217.38 984.16,-227.06"/>
<polygon fill="none" stroke="black" points="984.11,-223.56 974.38,-227.75 984.6,-230.54 984.11,-223.56"/>
</g>
<!-- PrincipalComponentAnalysis -->
<g id="node19" class="node">
<title>PrincipalComponentAnalysis</title>
<g id="a_node19"><a xlink:href="https://w3id.org/pink#PrincipalComponentAnalysis" xlink:title="PrincipalComponentAnalysis">
<ellipse fill="#ffffcc" stroke="black" cx="1867.3" cy="-90" rx="119.93" ry="18"/>
<text xml:space="preserve" text-anchor="middle" x="1867.3" y="-84.95" font-family="Times,serif" font-size="14.00">PrincipalComponentAnalysis</text>
</a>
</g>
</g>
<!-- PrincipalComponentAnalysis&#45;&gt;DimensionalityReduction -->
<g id="edge10" class="edge">
<title>PrincipalComponentAnalysis&#45;&gt;DimensionalityReduction</title>
<path fill="none" stroke="black" d="M1867.3,-108.3C1867.3,-115.59 1867.3,-124.27 1867.3,-132.46"/>
<polygon fill="none" stroke="black" points="1863.8,-132.38 1867.3,-142.38 1870.8,-132.38 1863.8,-132.38"/>
</g>
<!-- HeuristicLearning -->
<g id="node20" class="node">
<title>HeuristicLearning</title>
<g id="a_node20"><a xlink:href="https://w3id.org/pink#HeuristicLearning" xlink:title="HeuristicLearning">
<ellipse fill="#ffffcc" stroke="black" cx="963.3" cy="-90" rx="77.97" ry="18"/>
<text xml:space="preserve" text-anchor="middle" x="963.3" y="-84.95" font-family="Times,serif" font-size="14.00">HeuristicLearning</text>
</a>
</g>
</g>
<!-- HeuristicLearning&#45;&gt;ReinforcedLearning -->
<g id="edge17" class="edge">
<title>HeuristicLearning&#45;&gt;ReinforcedLearning</title>
<path fill="none" stroke="black" d="M997.7,-106.54C1019.85,-116.53 1048.87,-129.64 1072.9,-140.49"/>
<polygon fill="none" stroke="black" points="1071.26,-143.6 1081.82,-144.52 1074.14,-137.22 1071.26,-143.6"/>
</g>
<!-- Classification&#45;&gt;SupervisedLearning -->
<g id="edge23" class="edge">
<title>Classification&#45;&gt;SupervisedLearning</title>
<path fill="none" stroke="black" d="M827.11,-107.24C838.98,-116.08 853.89,-127.18 867.08,-137"/>
<polygon fill="none" stroke="black" points="864.98,-139.81 875.1,-142.97 869.17,-134.19 864.98,-139.81"/>
</g>
</g>
</svg>
