<?xml version="1.0" encoding="UTF-8" standalone="no"?>
<!DOCTYPE svg PUBLIC "-//W3C//DTD SVG 1.1//EN"
 "http://www.w3.org/Graphics/SVG/1.1/DTD/svg11.dtd">
<!-- Generated by graphviz version 13.1.2 (20250808.2320)
 -->
<!-- Pages: 1 -->
<svg width="268pt" height="188pt"
 viewBox="0.00 0.00 268.00 188.00" xmlns="http://www.w3.org/2000/svg" xmlns:xlink="http://www.w3.org/1999/xlink">
<g id="graph0" class="graph" transform="scale(1 1) rotate(0) translate(4 184)">
<polygon fill="white" stroke="none" points="-4,4 -4,-184 264.34,-184 264.34,4 -4,4"/>
<!-- CumulativeHypergeometricTest -->
<g id="node1" class="node">
<title>CumulativeHypergeometricTest</title>
<g id="a_node1"><a xlink:href="https://w3id.org/emmo/hume#CumulativeHypergeometricTest" xlink:title="CumulativeHypergeometricTest">
<ellipse fill="#ffffcc" stroke="black" cx="130.17" cy="-18" rx="130.17" ry="18"/>
<text xml:space="preserve" text-anchor="middle" x="130.17" y="-12.95" font-family="Times,serif" font-size="14.00">CumulativeHypergeometricTest</text>
</a>
</g>
</g>
<!-- StatisticalTest -->
<g id="node3" class="node">
<title>StatisticalTest</title>
<g id="a_node3"><a xlink:href="https://w3id.org/emmo/hume#StatisticalTest" xlink:title="StatisticalTest">
<ellipse fill="#ffffcc" stroke="black" cx="130.17" cy="-90" rx="62.61" ry="18"/>
<text xml:space="preserve" text-anchor="middle" x="130.17" y="-84.95" font-family="Times,serif" font-size="14.00">StatisticalTest</text>
</a>
</g>
</g>
<!-- CumulativeHypergeometricTest&#45;&gt;StatisticalTest -->
<g id="edge1" class="edge">
<title>CumulativeHypergeometricTest&#45;&gt;StatisticalTest</title>
<path fill="none" stroke="black" d="M130.17,-36.3C130.17,-43.59 130.17,-52.27 130.17,-60.46"/>
<polygon fill="none" stroke="black" points="126.67,-60.38 130.17,-70.38 133.67,-60.38 126.67,-60.38"/>
</g>
<!-- StatisticalModel -->
<g id="node2" class="node">
<title>StatisticalModel</title>
<g id="a_node2"><a xlink:href="https://w3id.org/emmo/hume#StatisticalModel" xlink:title="StatisticalModel">
<ellipse fill="#ffffcc" stroke="black" stroke-width="2" cx="130.17" cy="-162" rx="71.82" ry="18"/>
<text xml:space="preserve" text-anchor="middle" x="130.17" y="-156.95" font-family="Times,serif" font-size="14.00">StatisticalModel</text>
</a>
</g>
</g>
<!-- StatisticalTest&#45;&gt;StatisticalModel -->
<g id="edge2" class="edge">
<title>StatisticalTest&#45;&gt;StatisticalModel</title>
<path fill="none" stroke="black" d="M130.17,-108.3C130.17,-115.48 130.17,-124.01 130.17,-132.1"/>
<polygon fill="none" stroke="black" points="126.67,-131.9 130.17,-141.9 133.67,-131.9 126.67,-131.9"/>
</g>
</g>
</svg>
