<?xml version="1.0" encoding="UTF-8" standalone="no"?>
<!DOCTYPE svg PUBLIC "-//W3C//DTD SVG 1.1//EN"
 "http://www.w3.org/Graphics/SVG/1.1/DTD/svg11.dtd">
<!-- Generated by graphviz version 13.1.2 (20250808.2320)
 -->
<!-- Pages: 1 -->
<svg width="990pt" height="260pt"
 viewBox="0.00 0.00 990.00 260.00" xmlns="http://www.w3.org/2000/svg" xmlns:xlink="http://www.w3.org/1999/xlink">
<g id="graph0" class="graph" transform="scale(1 1) rotate(0) translate(4 256)">
<polygon fill="white" stroke="none" points="-4,4 -4,-256 985.88,-256 985.88,4 -4,4"/>
<!-- NaturalLanguageClassification -->
<g id="node1" class="node">
<title>NaturalLanguageClassification</title>
<g id="a_node1"><a xlink:href="https://w3id.org/pink#NaturalLanguageClassification" xlink:title="NaturalLanguageClassification">
<ellipse fill="#ffffcc" stroke="black" cx="125.56" cy="-90" rx="125.56" ry="18"/>
<text xml:space="preserve" text-anchor="middle" x="125.56" y="-84.95" font-family="Times,serif" font-size="14.00">NaturalLanguageClassification</text>
</a>
</g>
</g>
<!-- NaturalLanguageUnderstanding -->
<g id="node8" class="node">
<title>NaturalLanguageUnderstanding</title>
<g id="a_node8"><a xlink:href="https://w3id.org/pink#NaturalLanguageUnderstanding" xlink:title="NaturalLanguageUnderstanding">
<ellipse fill="#ffffcc" stroke="black" cx="541.56" cy="-162" rx="129.15" ry="18"/>
<text xml:space="preserve" text-anchor="middle" x="541.56" y="-156.95" font-family="Times,serif" font-size="14.00">NaturalLanguageUnderstanding</text>
</a>
</g>
</g>
<!-- NaturalLanguageClassification&#45;&gt;NaturalLanguageUnderstanding -->
<g id="edge7" class="edge">
<title>NaturalLanguageClassification&#45;&gt;NaturalLanguageUnderstanding</title>
<path fill="none" stroke="black" d="M204.79,-104.33C274.86,-116.12 377.08,-133.32 450.5,-145.68"/>
<polygon fill="none" stroke="black" points="449.64,-149.08 460.08,-147.29 450.8,-142.18 449.64,-149.08"/>
</g>
<!-- NaturalLanguageProcessing -->
<g id="node2" class="node">
<title>NaturalLanguageProcessing</title>
<g id="a_node2"><a xlink:href="https://w3id.org/emmo/hume#NaturalLanguageProcessing" xlink:title="NaturalLanguageProcessing">
<ellipse fill="#ffffcc" stroke="black" stroke-width="2" cx="672.56" cy="-234" rx="114.82" ry="18"/>
<text xml:space="preserve" text-anchor="middle" x="672.56" y="-228.95" font-family="Times,serif" font-size="14.00">NaturalLanguageProcessing</text>
</a>
</g>
</g>
<!-- QuestionAnswering -->
<g id="node3" class="node">
<title>QuestionAnswering</title>
<g id="a_node3"><a xlink:href="https://w3id.org/pink#QuestionAnswering" xlink:title="QuestionAnswering">
<ellipse fill="#ffffcc" stroke="black" cx="353.56" cy="-90" rx="84.62" ry="18"/>
<text xml:space="preserve" text-anchor="middle" x="353.56" y="-84.95" font-family="Times,serif" font-size="14.00">QuestionAnswering</text>
</a>
</g>
</g>
<!-- QuestionAnswering&#45;&gt;NaturalLanguageUnderstanding -->
<g id="edge3" class="edge">
<title>QuestionAnswering&#45;&gt;NaturalLanguageUnderstanding</title>
<path fill="none" stroke="black" d="M394.36,-106.19C421.48,-116.29 457.42,-129.67 486.99,-140.68"/>
<polygon fill="none" stroke="black" points="485.56,-143.88 496.15,-144.09 488,-137.32 485.56,-143.88"/>
</g>
<!-- LargeLanguageModel -->
<g id="node4" class="node">
<title>LargeLanguageModel</title>
<g id="a_node4"><a xlink:href="https://w3id.org/pink#LargeLanguageModel" xlink:title="LargeLanguageModel">
<ellipse fill="#ffffcc" stroke="black" cx="888.56" cy="-18" rx="93.32" ry="18"/>
<text xml:space="preserve" text-anchor="middle" x="888.56" y="-12.95" font-family="Times,serif" font-size="14.00">LargeLanguageModel</text>
</a>
</g>
</g>
<!-- TextGeneration -->
<g id="node9" class="node">
<title>TextGeneration</title>
<g id="a_node9"><a xlink:href="https://w3id.org/pink#TextGeneration" xlink:title="TextGeneration">
<ellipse fill="#ffffcc" stroke="black" cx="888.56" cy="-90" rx="68.24" ry="18"/>
<text xml:space="preserve" text-anchor="middle" x="888.56" y="-84.95" font-family="Times,serif" font-size="14.00">TextGeneration</text>
</a>
</g>
</g>
<!-- LargeLanguageModel&#45;&gt;TextGeneration -->
<g id="edge4" class="edge">
<title>LargeLanguageModel&#45;&gt;TextGeneration</title>
<path fill="none" stroke="black" d="M888.56,-36.3C888.56,-43.59 888.56,-52.27 888.56,-60.46"/>
<polygon fill="none" stroke="black" points="885.06,-60.38 888.56,-70.38 892.06,-60.38 885.06,-60.38"/>
</g>
<!-- MachineTranslation -->
<g id="node5" class="node">
<title>MachineTranslation</title>
<g id="a_node5"><a xlink:href="https://w3id.org/pink#MachineTranslation" xlink:title="MachineTranslation">
<ellipse fill="#ffffcc" stroke="black" cx="541.56" cy="-90" rx="85.64" ry="18"/>
<text xml:space="preserve" text-anchor="middle" x="541.56" y="-84.95" font-family="Times,serif" font-size="14.00">MachineTranslation</text>
</a>
</g>
</g>
<!-- MachineTranslation&#45;&gt;NaturalLanguageUnderstanding -->
<g id="edge8" class="edge">
<title>MachineTranslation&#45;&gt;NaturalLanguageUnderstanding</title>
<path fill="none" stroke="black" d="M541.56,-108.3C541.56,-115.59 541.56,-124.27 541.56,-132.46"/>
<polygon fill="none" stroke="black" points="538.06,-132.38 541.56,-142.38 545.06,-132.38 538.06,-132.38"/>
</g>
<!-- ContentExtraction -->
<g id="node6" class="node">
<title>ContentExtraction</title>
<g id="a_node6"><a xlink:href="https://w3id.org/pink#ContentExtraction" xlink:title="ContentExtraction">
<ellipse fill="#ffffcc" stroke="black" cx="723.56" cy="-90" rx="78.48" ry="18"/>
<text xml:space="preserve" text-anchor="middle" x="723.56" y="-84.95" font-family="Times,serif" font-size="14.00">ContentExtraction</text>
</a>
</g>
</g>
<!-- ContentExtraction&#45;&gt;NaturalLanguageUnderstanding -->
<g id="edge6" class="edge">
<title>ContentExtraction&#45;&gt;NaturalLanguageUnderstanding</title>
<path fill="none" stroke="black" d="M684.52,-106.02C658.4,-116.06 623.7,-129.41 595.02,-140.44"/>
<polygon fill="none" stroke="black" points="593.85,-137.14 585.77,-144 596.36,-143.67 593.85,-137.14"/>
</g>
<!-- NaturalLanguageGeneration -->
<g id="node7" class="node">
<title>NaturalLanguageGeneration</title>
<g id="a_node7"><a xlink:href="https://w3id.org/pink#NaturalLanguageGeneration" xlink:title="NaturalLanguageGeneration">
<ellipse fill="#ffffcc" stroke="black" cx="846.56" cy="-162" rx="115.84" ry="18"/>
<text xml:space="preserve" text-anchor="middle" x="846.56" y="-156.95" font-family="Times,serif" font-size="14.00">NaturalLanguageGeneration</text>
</a>
</g>
</g>
<!-- NaturalLanguageGeneration&#45;&gt;NaturalLanguageProcessing -->
<g id="edge2" class="edge">
<title>NaturalLanguageGeneration&#45;&gt;NaturalLanguageProcessing</title>
<path fill="none" stroke="black" d="M806.21,-179.24C781.85,-189.03 750.58,-201.61 724.41,-212.14"/>
<polygon fill="none" stroke="black" points="723.28,-208.82 715.31,-215.8 725.9,-215.32 723.28,-208.82"/>
</g>
<!-- NaturalLanguageUnderstanding&#45;&gt;NaturalLanguageProcessing -->
<g id="edge5" class="edge">
<title>NaturalLanguageUnderstanding&#45;&gt;NaturalLanguageProcessing</title>
<path fill="none" stroke="black" d="M572.94,-179.77C590.19,-188.98 611.81,-200.53 630.5,-210.52"/>
<polygon fill="none" stroke="black" points="628.73,-213.54 639.2,-215.17 632.03,-207.37 628.73,-213.54"/>
</g>
<!-- TextGeneration&#45;&gt;NaturalLanguageGeneration -->
<g id="edge1" class="edge">
<title>TextGeneration&#45;&gt;NaturalLanguageGeneration</title>
<path fill="none" stroke="black" d="M878.4,-107.95C873.72,-115.74 868.06,-125.18 862.81,-133.92"/>
<polygon fill="none" stroke="black" points="859.85,-132.05 857.71,-142.43 865.85,-135.65 859.85,-132.05"/>
</g>
</g>
</svg>
