<?xml version="1.0" encoding="UTF-8" standalone="no"?>
<!DOCTYPE svg PUBLIC "-//W3C//DTD SVG 1.1//EN"
 "http://www.w3.org/Graphics/SVG/1.1/DTD/svg11.dtd">
<!-- Generated by graphviz version 13.1.2 (20250808.2320)
 -->
<!-- Pages: 1 -->
<svg width="945pt" height="260pt"
 viewBox="0.00 0.00 945.00 260.00" xmlns="http://www.w3.org/2000/svg" xmlns:xlink="http://www.w3.org/1999/xlink">
<g id="graph0" class="graph" transform="scale(1 1) rotate(0) translate(4 256)">
<polygon fill="white" stroke="none" points="-4,4 -4,-256 940.92,-256 940.92,4 -4,4"/>
<!-- AtomicInteractionModel -->
<g id="node1" class="node">
<title>AtomicInteractionModel</title>
<g id="a_node1"><a xlink:href="https://w3id.org/emmo/hume#AtomicInteractionModel" xlink:title="AtomicInteractionModel">
<ellipse fill="#ffffcc" stroke="black" cx="103.56" cy="-18" rx="103.56" ry="18"/>
<text xml:space="preserve" text-anchor="middle" x="103.56" y="-12.95" font-family="Times,serif" font-size="14.00">AtomicInteractionModel</text>
</a>
</g>
</g>
<!-- AtomisticModel -->
<g id="node6" class="node">
<title>AtomisticModel</title>
<g id="a_node6"><a xlink:href="https://w3id.org/emmo/hume#AtomisticModel" xlink:title="AtomisticModel">
<ellipse fill="#ffffcc" stroke="black" cx="349.56" cy="-90" rx="72.34" ry="18"/>
<text xml:space="preserve" text-anchor="middle" x="349.56" y="-84.95" font-family="Times,serif" font-size="14.00">AtomisticModel</text>
</a>
</g>
</g>
<!-- AtomicInteractionModel&#45;&gt;AtomisticModel -->
<g id="edge3" class="edge">
<title>AtomicInteractionModel&#45;&gt;AtomisticModel</title>
<path fill="none" stroke="black" d="M156.03,-33.93C196.1,-45.33 251.25,-61.03 292.43,-72.74"/>
<polygon fill="none" stroke="black" points="291.35,-76.08 301.93,-75.45 293.26,-69.34 291.35,-76.08"/>
</g>
<!-- AtomisticMolecularDynamics -->
<g id="node2" class="node">
<title>AtomisticMolecularDynamics</title>
<g id="a_node2"><a xlink:href="https://w3id.org/emmo/hume#AtomisticMolecularDynamics" xlink:title="AtomisticMolecularDynamics">
<ellipse fill="#ffffcc" stroke="black" cx="349.56" cy="-18" rx="124.03" ry="18"/>
<text xml:space="preserve" text-anchor="middle" x="349.56" y="-12.95" font-family="Times,serif" font-size="14.00">AtomisticMolecularDynamics</text>
</a>
</g>
</g>
<!-- AtomisticMolecularDynamics&#45;&gt;AtomisticModel -->
<g id="edge4" class="edge">
<title>AtomisticMolecularDynamics&#45;&gt;AtomisticModel</title>
<path fill="none" stroke="black" d="M349.56,-36.3C349.56,-43.59 349.56,-52.27 349.56,-60.46"/>
<polygon fill="none" stroke="black" points="346.06,-60.38 349.56,-70.38 353.06,-60.38 346.06,-60.38"/>
</g>
<!-- MesoscopicModel -->
<g id="node3" class="node">
<title>MesoscopicModel</title>
<g id="a_node3"><a xlink:href="https://w3id.org/emmo/hume#MesoscopicModel" xlink:title="MesoscopicModel">
<ellipse fill="#ffffcc" stroke="black" cx="519.56" cy="-90" rx="80.01" ry="18"/>
<text xml:space="preserve" text-anchor="middle" x="519.56" y="-84.95" font-family="Times,serif" font-size="14.00">MesoscopicModel</text>
</a>
</g>
</g>
<!-- MaterialsModel -->
<g id="node5" class="node">
<title>MaterialsModel</title>
<g id="a_node5"><a xlink:href="https://w3id.org/emmo/hume#MaterialsModel" xlink:title="MaterialsModel">
<ellipse fill="#ffffcc" stroke="black" cx="606.56" cy="-162" rx="70.8" ry="18"/>
<text xml:space="preserve" text-anchor="middle" x="606.56" y="-156.95" font-family="Times,serif" font-size="14.00">MaterialsModel</text>
</a>
</g>
</g>
<!-- MesoscopicModel&#45;&gt;MaterialsModel -->
<g id="edge2" class="edge">
<title>MesoscopicModel&#45;&gt;MaterialsModel</title>
<path fill="none" stroke="black" d="M540.17,-107.59C551.23,-116.48 565.03,-127.59 577.19,-137.37"/>
<polygon fill="none" stroke="black" points="574.92,-140.04 584.91,-143.58 579.31,-134.59 574.92,-140.04"/>
</g>
<!-- ContinuumModel -->
<g id="node4" class="node">
<title>ContinuumModel</title>
<g id="a_node4"><a xlink:href="https://w3id.org/emmo/hume#ContinuumModel" xlink:title="ContinuumModel">
<ellipse fill="#ffffcc" stroke="black" cx="694.56" cy="-90" rx="77.45" ry="18"/>
<text xml:space="preserve" text-anchor="middle" x="694.56" y="-84.95" font-family="Times,serif" font-size="14.00">ContinuumModel</text>
</a>
</g>
</g>
<!-- ContinuumModel&#45;&gt;MaterialsModel -->
<g id="edge1" class="edge">
<title>ContinuumModel&#45;&gt;MaterialsModel</title>
<path fill="none" stroke="black" d="M673.7,-107.59C662.52,-116.48 648.56,-127.59 636.26,-137.37"/>
<polygon fill="none" stroke="black" points="634.09,-134.62 628.45,-143.59 638.45,-140.1 634.09,-134.62"/>
</g>
<!-- PhysicsBasedModel -->
<g id="node10" class="node">
<title>PhysicsBasedModel</title>
<g id="a_node10"><a xlink:href="https://w3id.org/emmo/hume#PhysicsBasedModel" xlink:title="PhysicsBasedModel">
<ellipse fill="#ffffcc" stroke="black" stroke-width="2" cx="686.56" cy="-234" rx="86.15" ry="18"/>
<text xml:space="preserve" text-anchor="middle" x="686.56" y="-228.95" font-family="Times,serif" font-size="14.00">PhysicsBasedModel</text>
</a>
</g>
</g>
<!-- MaterialsModel&#45;&gt;PhysicsBasedModel -->
<g id="edge5" class="edge">
<title>MaterialsModel&#45;&gt;PhysicsBasedModel</title>
<path fill="none" stroke="black" d="M625.51,-179.59C635.29,-188.14 647.4,-198.74 658.25,-208.23"/>
<polygon fill="none" stroke="black" points="655.65,-210.61 665.48,-214.56 660.26,-205.34 655.65,-210.61"/>
</g>
<!-- AtomisticModel&#45;&gt;MaterialsModel -->
<g id="edge9" class="edge">
<title>AtomisticModel&#45;&gt;MaterialsModel</title>
<path fill="none" stroke="black" d="M396.99,-103.92C439.74,-115.56 502.7,-132.71 548.45,-145.17"/>
<polygon fill="none" stroke="black" points="547.37,-148.51 557.93,-147.76 549.21,-141.75 547.37,-148.51"/>
</g>
<!-- StructureManipulationModel -->
<g id="node7" class="node">
<title>StructureManipulationModel</title>
<g id="a_node7"><a xlink:href="https://w3id.org/emmo/hume#StructureManipulationModel" xlink:title="StructureManipulationModel">
<ellipse fill="#ffffcc" stroke="black" cx="610.56" cy="-18" rx="119.42" ry="18"/>
<text xml:space="preserve" text-anchor="middle" x="610.56" y="-12.95" font-family="Times,serif" font-size="14.00">StructureManipulationModel</text>
</a>
</g>
</g>
<!-- StructureManipulationModel&#45;&gt;AtomisticModel -->
<g id="edge6" class="edge">
<title>StructureManipulationModel&#45;&gt;AtomisticModel</title>
<path fill="none" stroke="black" d="M553.6,-34.28C510.69,-45.78 452.02,-61.52 408.61,-73.16"/>
<polygon fill="none" stroke="black" points="407.85,-69.74 399.1,-75.71 409.67,-76.5 407.85,-69.74"/>
</g>
<!-- ElectronicModel -->
<g id="node8" class="node">
<title>ElectronicModel</title>
<g id="a_node8"><a xlink:href="https://w3id.org/emmo/hume#ElectronicModel" xlink:title="ElectronicModel">
<ellipse fill="#ffffcc" stroke="black" cx="863.56" cy="-90" rx="73.36" ry="18"/>
<text xml:space="preserve" text-anchor="middle" x="863.56" y="-84.95" font-family="Times,serif" font-size="14.00">ElectronicModel</text>
</a>
</g>
</g>
<!-- ElectronicModel&#45;&gt;MaterialsModel -->
<g id="edge7" class="edge">
<title>ElectronicModel&#45;&gt;MaterialsModel</title>
<path fill="none" stroke="black" d="M815.82,-104C773.04,-115.65 710.18,-132.78 664.52,-145.21"/>
<polygon fill="none" stroke="black" points="663.79,-141.78 655.06,-147.79 665.63,-148.54 663.79,-141.78"/>
</g>
<!-- PhysicsEquation -->
<g id="node9" class="node">
<title>PhysicsEquation</title>
<g id="a_node9"><a xlink:href="https://w3id.org/emmo/hume#PhysicsEquation" xlink:title="PhysicsEquation">
<ellipse fill="#ffffcc" stroke="black" cx="767.56" cy="-162" rx="72.34" ry="18"/>
<text xml:space="preserve" text-anchor="middle" x="767.56" y="-156.95" font-family="Times,serif" font-size="14.00">PhysicsEquation</text>
</a>
</g>
</g>
<!-- PhysicsEquation&#45;&gt;PhysicsBasedModel -->
<g id="edge8" class="edge">
<title>PhysicsEquation&#45;&gt;PhysicsBasedModel</title>
<path fill="none" stroke="black" d="M748.36,-179.59C738.47,-188.14 726.2,-198.74 715.21,-208.23"/>
<polygon fill="none" stroke="black" points="713.17,-205.38 707.89,-214.56 717.74,-210.67 713.17,-205.38"/>
</g>
</g>
</svg>
