<?xml version="1.0" encoding="UTF-8" standalone="no"?>
<!DOCTYPE svg PUBLIC "-//W3C//DTD SVG 1.1//EN"
 "http://www.w3.org/Graphics/SVG/1.1/DTD/svg11.dtd">
<!-- Generated by graphviz version 13.1.2 (20250808.2320)
 -->
<!-- Pages: 1 -->
<svg width="677pt" height="260pt"
 viewBox="0.00 0.00 677.00 260.00" xmlns="http://www.w3.org/2000/svg" xmlns:xlink="http://www.w3.org/1999/xlink">
<g id="graph0" class="graph" transform="scale(1 1) rotate(0) translate(4 256)">
<polygon fill="white" stroke="none" points="-4,4 -4,-256 672.72,-256 672.72,4 -4,4"/>
<!-- ResemblanceModel -->
<g id="node1" class="node">
<title>ResemblanceModel</title>
<g id="a_node1"><a xlink:href="https://w3id.org/emmo/hume#ResemblanceIcon" xlink:title="ResemblanceModel">
<ellipse fill="#ffffcc" stroke="black" cx="415.82" cy="-162" rx="85.13" ry="18"/>
<text xml:space="preserve" text-anchor="middle" x="415.82" y="-156.95" font-family="Times,serif" font-size="14.00">ResemblanceModel</text>
</a>
</g>
</g>
<!-- Model -->
<g id="node7" class="node">
<title>Model</title>
<g id="a_node7"><a xlink:href="https://w3id.org/pink#Model" xlink:title="Model">
<ellipse fill="#ffffcc" stroke="black" stroke-width="2" cx="415.82" cy="-234" rx="35.49" ry="18"/>
<text xml:space="preserve" text-anchor="middle" x="415.82" y="-228.95" font-family="Times,serif" font-size="14.00">Model</text>
</a>
</g>
</g>
<!-- ResemblanceModel&#45;&gt;Model -->
<g id="edge4" class="edge">
<title>ResemblanceModel&#45;&gt;Model</title>
<path fill="none" stroke="black" d="M415.82,-180.3C415.82,-187.48 415.82,-196.01 415.82,-204.1"/>
<polygon fill="none" stroke="black" points="412.32,-203.9 415.82,-213.9 419.32,-203.9 412.32,-203.9"/>
</g>
<!-- StatisticalModel -->
<g id="node2" class="node">
<title>StatisticalModel</title>
<g id="a_node2"><a xlink:href="https://w3id.org/emmo/hume#StatisticalModel" xlink:title="StatisticalModel">
<ellipse fill="#ffffcc" stroke="black" stroke-width="2" cx="71.82" cy="-18" rx="71.82" ry="18"/>
<text xml:space="preserve" text-anchor="middle" x="71.82" y="-12.95" font-family="Times,serif" font-size="14.00">StatisticalModel</text>
</a>
</g>
</g>
<!-- MathematicalModel -->
<g id="node9" class="node">
<title>MathematicalModel</title>
<g id="a_node9"><a xlink:href="https://w3id.org/emmo/hume#MathematicalModel" xlink:title="MathematicalModel">
<ellipse fill="#ffffcc" stroke="black" cx="236.82" cy="-90" rx="87.18" ry="18"/>
<text xml:space="preserve" text-anchor="middle" x="236.82" y="-84.95" font-family="Times,serif" font-size="14.00">MathematicalModel</text>
</a>
</g>
</g>
<!-- StatisticalModel&#45;&gt;MathematicalModel -->
<g id="edge2" class="edge">
<title>StatisticalModel&#45;&gt;MathematicalModel</title>
<path fill="none" stroke="black" d="M108.03,-34.36C131.96,-44.51 163.57,-57.92 189.49,-68.92"/>
<polygon fill="none" stroke="black" points="187.88,-72.04 198.45,-72.72 190.61,-65.59 187.88,-72.04"/>
</g>
<!-- Replica -->
<g id="node3" class="node">
<title>Replica</title>
<g id="a_node3"><a xlink:href="https://w3id.org/emmo/hume#Replica" xlink:title="Replica">
<ellipse fill="#ffffcc" stroke="black" cx="504.82" cy="-90" rx="39.07" ry="18"/>
<text xml:space="preserve" text-anchor="middle" x="504.82" y="-84.95" font-family="Times,serif" font-size="14.00">Replica</text>
</a>
</g>
</g>
<!-- Replica&#45;&gt;ResemblanceModel -->
<g id="edge6" class="edge">
<title>Replica&#45;&gt;ResemblanceModel</title>
<path fill="none" stroke="black" d="M485.95,-105.85C474.34,-114.98 459.2,-126.88 445.96,-137.29"/>
<polygon fill="none" stroke="black" points="444.06,-134.34 438.36,-143.28 448.38,-139.84 444.06,-134.34"/>
</g>
<!-- FunctionalModel -->
<g id="node8" class="node">
<title>FunctionalModel</title>
<g id="a_node8"><a xlink:href="https://w3id.org/emmo/hume#FunctionalIcon" xlink:title="FunctionalModel">
<ellipse fill="#ffffcc" stroke="black" cx="593.82" cy="-162" rx="74.89" ry="18"/>
<text xml:space="preserve" text-anchor="middle" x="593.82" y="-156.95" font-family="Times,serif" font-size="14.00">FunctionalModel</text>
</a>
</g>
</g>
<!-- Replica&#45;&gt;FunctionalModel -->
<g id="edge5" class="edge">
<title>Replica&#45;&gt;FunctionalModel</title>
<path fill="none" stroke="black" d="M523.7,-105.85C535.39,-115.04 550.66,-127.05 563.97,-137.52"/>
<polygon fill="none" stroke="black" points="561.58,-140.09 571.61,-143.53 565.91,-134.59 561.58,-140.09"/>
</g>
<!-- DataBasedModel -->
<g id="node4" class="node">
<title>DataBasedModel</title>
<g id="a_node4"><a xlink:href="https://w3id.org/emmo/hume#DataBasedModel" xlink:title="DataBasedModel">
<ellipse fill="#ffffcc" stroke="black" stroke-width="2" cx="236.82" cy="-18" rx="75.41" ry="18"/>
<text xml:space="preserve" text-anchor="middle" x="236.82" y="-12.95" font-family="Times,serif" font-size="14.00">DataBasedModel</text>
</a>
</g>
</g>
<!-- DataBasedModel&#45;&gt;MathematicalModel -->
<g id="edge3" class="edge">
<title>DataBasedModel&#45;&gt;MathematicalModel</title>
<path fill="none" stroke="black" d="M236.82,-36.66C236.82,-43.76 236.82,-52.14 236.82,-60.08"/>
<polygon fill="none" stroke="black" points="233.32,-60.07 236.82,-70.07 240.32,-60.07 233.32,-60.07"/>
</g>
<!-- AnalogicalModel -->
<g id="node5" class="node">
<title>AnalogicalModel</title>
<g id="a_node5"><a xlink:href="https://w3id.org/emmo/hume#AnalogicalIcon" xlink:title="AnalogicalModel">
<ellipse fill="#ffffcc" stroke="black" cx="236.82" cy="-162" rx="75.92" ry="18"/>
<text xml:space="preserve" text-anchor="middle" x="236.82" y="-156.95" font-family="Times,serif" font-size="14.00">AnalogicalModel</text>
</a>
</g>
</g>
<!-- AnalogicalModel&#45;&gt;Model -->
<g id="edge7" class="edge">
<title>AnalogicalModel&#45;&gt;Model</title>
<path fill="none" stroke="black" d="M274.79,-177.85C304.95,-189.64 346.96,-206.07 377.27,-217.92"/>
<polygon fill="none" stroke="black" points="375.87,-221.13 386.46,-221.52 378.42,-214.61 375.87,-221.13"/>
</g>
<!-- PhysicsBasedModel -->
<g id="node6" class="node">
<title>PhysicsBasedModel</title>
<g id="a_node6"><a xlink:href="https://w3id.org/emmo/hume#PhysicsBasedModel" xlink:title="PhysicsBasedModel">
<ellipse fill="#ffffcc" stroke="black" stroke-width="2" cx="416.82" cy="-18" rx="86.15" ry="18"/>
<text xml:space="preserve" text-anchor="middle" x="416.82" y="-12.95" font-family="Times,serif" font-size="14.00">PhysicsBasedModel</text>
</a>
</g>
</g>
<!-- PhysicsBasedModel&#45;&gt;MathematicalModel -->
<g id="edge9" class="edge">
<title>PhysicsBasedModel&#45;&gt;MathematicalModel</title>
<path fill="none" stroke="black" d="M376.43,-34.71C349.96,-45 315.16,-58.53 286.93,-69.51"/>
<polygon fill="none" stroke="black" points="285.93,-66.15 277.88,-73.04 288.46,-72.67 285.93,-66.15"/>
</g>
<!-- FunctionalModel&#45;&gt;Model -->
<g id="edge8" class="edge">
<title>FunctionalModel&#45;&gt;Model</title>
<path fill="none" stroke="black" d="M556.07,-177.85C526.17,-189.6 484.56,-205.97 454.44,-217.82"/>
<polygon fill="none" stroke="black" points="453.33,-214.49 445.31,-221.41 455.9,-221 453.33,-214.49"/>
</g>
<!-- MathematicalModel&#45;&gt;AnalogicalModel -->
<g id="edge1" class="edge">
<title>MathematicalModel&#45;&gt;AnalogicalModel</title>
<path fill="none" stroke="black" d="M236.82,-108.3C236.82,-115.59 236.82,-124.27 236.82,-132.46"/>
<polygon fill="none" stroke="black" points="233.32,-132.38 236.82,-142.38 240.32,-132.38 233.32,-132.38"/>
</g>
</g>
</svg>
